<?xml version="1.0" encoding="utf-8"?>
<!-- Generator: Adobe Illustrator 27.7.0, SVG Export Plug-In . SVG Version: 6.00 Build 0)  -->
<svg version="1.1" id="Layer_1" xmlns="http://www.w3.org/2000/svg" xmlns:xlink="http://www.w3.org/1999/xlink" x="0px" y="0px"
	 viewBox="0 0 534 500" style="enable-background:new 0 0 534 500;" xml:space="preserve">
<style type="text/css">
	.st0{fill:#EBEBEB;}
	.st1{fill:#F5F5F5;}
	.st2{fill:#F0F0F0;}
	.st3{fill:#E6E6E6;}
	.st4{fill:#EA3F37;}
	.st5{opacity:0.3;}
	.st6{fill:#FF6E6E;}
	.st7{opacity:0.7;fill:#FFFFFF;enable-background:new    ;}
	.st8{opacity:0.3;fill:#FF6E6E;}
	.st9{opacity:0.3;fill:#FFFFFF;enable-background:new    ;}
	.st10{opacity:0.2;enable-background:new    ;}
	.st11{fill:#407BFF;}
	.st12{opacity:0.8;fill:#FFFFFF;enable-background:new    ;}
	.st13{fill:#263238;}
	.st14{fill:#FFFFFF;}
	.st15{opacity:0.5;fill:#FFFFFF;enable-background:new    ;}
	.st16{opacity:0.6;fill:#FFFFFF;enable-background:new    ;}
</style>
<path class="st0" d="M76.9,139.8l2.3,4.5l5,0.7l-3.6,3.5l0.9,5l-4.5-2.4l-4.5,2.4l0.9-5l-3.6-3.5l5-0.7L76.9,139.8z"/>
<path class="st1" d="M526.6,354.1l2.3,4.6l5,0.7l-3.6,3.5l0.9,5l-4.5-2.4l-4.5,2.4l0.9-5l-3.6-3.5l5-0.7L526.6,354.1z"/>
<path class="st1" d="M437.6,486.2l2.3,4.5l5,0.7l-3.6,3.5l0.9,5l-4.5-2.4l-4.5,2.4l0.8-5l-3.6-3.5l5-0.7L437.6,486.2z"/>
<path class="st0" d="M233.8,59l0.8,1.7l1.9,0.3c0.1,0,0.2,0.1,0.3,0.1c0.1,0.1,0.1,0.2,0.2,0.3c0,0.1,0,0.2,0,0.3
	c0,0.1-0.1,0.2-0.2,0.3l-1.4,1.3l0.3,1.9c0,0.1,0,0.2,0,0.3c0,0.1-0.1,0.2-0.2,0.2c-0.1,0.1-0.2,0.1-0.3,0.1c-0.1,0-0.2,0-0.3-0.1
	l-1.7-0.9l-1.7,0.9c-0.1,0-0.2,0.1-0.3,0.1c-0.1,0-0.2,0-0.3-0.1c-0.1-0.1-0.2-0.1-0.2-0.2c0-0.1-0.1-0.2,0-0.3l0.3-1.9l-1.4-1.3
	c-0.1-0.1-0.1-0.2-0.2-0.3c0-0.1,0-0.2,0-0.3c0-0.1,0.1-0.2,0.2-0.3c0.1-0.1,0.2-0.1,0.3-0.1l1.9-0.3l0.8-1.7c0-0.1,0.1-0.2,0.2-0.3
	c0.1-0.1,0.2-0.1,0.3-0.1c0.1,0,0.2,0,0.3,0.1C233.7,58.8,233.7,58.9,233.8,59z"/>
<path class="st1" d="M4.3,464.5l0.8,1.7l1.9,0.3c0.1,0,0.2,0.1,0.3,0.1c0.1,0.1,0.1,0.2,0.2,0.3c0,0.1,0,0.2,0,0.3
	c0,0.1-0.1,0.2-0.2,0.3l-1.4,1.3l0.3,1.9c0,0.1,0,0.2,0,0.3c0,0.1-0.1,0.2-0.2,0.2c-0.1,0.1-0.2,0.1-0.3,0.1c-0.1,0-0.2,0-0.3-0.1
	l-1.7-0.9l-1.7,0.9c-0.1,0-0.2,0.1-0.3,0.1c-0.1,0-0.2,0-0.3-0.1c-0.1-0.1-0.2-0.1-0.2-0.2c0-0.1-0.1-0.2,0-0.3l0.3-1.9l-1.4-1.3
	c-0.1-0.1-0.1-0.2-0.2-0.3c0-0.1,0-0.2,0-0.3c0-0.1,0.1-0.2,0.2-0.3c0.1-0.1,0.2-0.1,0.3-0.1l1.9-0.3l0.8-1.7c0-0.1,0.1-0.2,0.2-0.3
	c0.1-0.1,0.2-0.1,0.3-0.1c0.1,0,0.2,0,0.3,0.1C4.2,464.3,4.2,464.4,4.3,464.5z"/>
<path class="st0" d="M41.8,41.2l0.8,1.7l1.9,0.3c0.1,0,0.2,0.1,0.3,0.1c0.1,0.1,0.1,0.2,0.2,0.3c0,0.1,0,0.2,0,0.3
	c0,0.1-0.1,0.2-0.2,0.3l-1.4,1.4l0.3,1.8c0,0.1,0,0.2,0,0.3c0,0.1-0.1,0.2-0.2,0.3C43.4,48,43.3,48,43.2,48c-0.1,0-0.2,0-0.3-0.1
	l-1.7-0.9l-1.7,0.9C39.5,48,39.3,48,39.2,48c-0.1,0-0.2,0-0.3-0.1c-0.1-0.1-0.2-0.2-0.2-0.3c0-0.1,0-0.2,0-0.3l0.3-1.8l-1.4-1.4
	c-0.1-0.1-0.1-0.2-0.2-0.3c0-0.1,0-0.2,0-0.3s0.1-0.2,0.2-0.3c0.1-0.1,0.2-0.1,0.3-0.1l1.9-0.3l0.9-1.7c0-0.1,0.1-0.2,0.2-0.2
	c0.1-0.1,0.2-0.1,0.3-0.1c0.1,0,0.2,0,0.3,0.1C41.6,41,41.7,41.1,41.8,41.2z"/>
<path class="st0" d="M39.5,376.1c0,0.4-0.1,0.7-0.3,1c-0.2,0.3-0.5,0.5-0.8,0.7c-0.3,0.1-0.7,0.2-1.1,0.1c-0.4-0.1-0.7-0.2-0.9-0.5
	c-0.3-0.3-0.4-0.6-0.5-0.9c-0.1-0.4,0-0.7,0.1-1.1c0.1-0.3,0.4-0.6,0.7-0.8s0.7-0.3,1-0.3c0.5,0,1,0.2,1.3,0.5
	C39.3,375.1,39.5,375.6,39.5,376.1z"/>
<path class="st0" d="M302.9,144.8c0,0.4-0.1,0.7-0.3,1c-0.2,0.3-0.5,0.5-0.8,0.7c-0.3,0.1-0.7,0.2-1.1,0.1c-0.4-0.1-0.7-0.2-1-0.5
	c-0.3-0.3-0.4-0.6-0.5-0.9c-0.1-0.4,0-0.7,0.1-1.1c0.1-0.3,0.4-0.6,0.7-0.8c0.3-0.2,0.7-0.3,1-0.3c0.2,0,0.5,0,0.7,0.1
	c0.2,0.1,0.4,0.2,0.6,0.4c0.2,0.2,0.3,0.4,0.4,0.6C302.8,144.3,302.9,144.6,302.9,144.8z"/>
<path class="st1" d="M207,42.7c0,0.4-0.1,0.7-0.3,1c-0.2,0.3-0.5,0.5-0.8,0.7c-0.3,0.1-0.7,0.2-1.1,0.1c-0.4-0.1-0.7-0.2-0.9-0.5
	c-0.3-0.3-0.4-0.6-0.5-0.9c-0.1-0.4,0-0.7,0.1-1.1c0.1-0.3,0.4-0.6,0.7-0.8c0.3-0.2,0.7-0.3,1-0.3c0.5,0,1,0.2,1.3,0.5
	C206.8,41.7,207,42.2,207,42.7z"/>
<path class="st2" d="M210,493.1c5.5-1.3,8.9-6.8,7.6-12.3c-1.3-5.5-6.8-8.9-12.3-7.6c-5.5,1.3-8.9,6.8-7.6,12.3
	C199,491,204.5,494.4,210,493.1z"/>
<path class="st3" d="M204.1,477.2c-2.1,0-4.1,0.7-5.8,1.9c-0.9,2-1.1,4.2-0.6,6.3c0.5,2.1,1.6,4,3.2,5.4c1.6,1.4,3.7,2.3,5.8,2.5
	c2.2,0.2,4.3-0.3,6.2-1.4c0.8-1.5,1.2-3.2,1.2-4.9c0-1.7-0.5-3.4-1.4-4.9c-0.9-1.5-2.1-2.7-3.6-3.6
	C207.5,477.6,205.8,477.2,204.1,477.2L204.1,477.2z"/>
<path class="st4" d="M125,305.6H40.5v-38.2L125,167h40.5v102.7h21v36h-21v31.2H125V305.6z M125,269.6v-52.6l-44.7,52.6H125z"/>
<path class="st4" d="M200.9,252.7c0-31.8,5.7-54,17.1-66.7c11.4-12.7,28.9-19,52.3-19c11.2,0,20.5,1.4,27.7,4.2
	c6.6,2.4,12.6,6,17.7,10.8c4.3,4.1,7.9,8.8,10.8,14c2.8,5.4,4.9,11.2,6.3,17.1c3.1,12.7,4.7,25.8,4.7,38.9
	c0,30.3-5.1,52.5-15.4,66.5c-10.3,14.1-27.9,21.1-53,21.1c-14.1,0-25.4-2.2-34.1-6.7c-8.7-4.6-16.1-11.4-21.3-19.7
	c-4-6.2-7.2-14.6-9.4-25.2C202,276.3,200.8,264.5,200.9,252.7z M247,252.8c0,21.3,1.9,35.8,5.6,43.6c3.8,7.8,9.2,11.6,16.4,11.7
	c2.3,0,4.5-0.4,6.6-1.3c2.1-0.9,4-2.1,5.6-3.7c3.5-3.3,6-8.5,7.6-15.7c1.6-7.1,2.4-18.3,2.4-33.3c0-22.2-1.9-37.1-5.6-44.7
	c-3.8-7.6-9.4-11.5-16.9-11.4c-7.7,0-13.2,3.9-16.7,11.7C248.6,217.4,246.9,231.8,247,252.8z"/>
<path class="st4" d="M436.4,305.6h-84.6v-38.2L436.4,167h40.5v102.7h21v36h-21v31.2h-40.5V305.6z M436.4,269.6v-52.6l-44.7,52.6
	H436.4z"/>
<g class="st5">
	<path class="st6" d="M199.1,108.3c0,0.5-0.2,1-0.4,1.4c-0.3,0.4-0.7,0.8-1.2,1c-0.5,0.2-1,0.2-1.5,0.1c-0.5-0.1-1-0.3-1.3-0.7
		c-0.4-0.4-0.6-0.8-0.7-1.3c-0.1-0.5,0-1,0.2-1.5c0.2-0.5,0.5-0.9,1-1.2c0.4-0.3,0.9-0.4,1.4-0.4c0.3,0,0.7,0.1,1,0.2
		c0.3,0.1,0.6,0.3,0.8,0.6c0.2,0.2,0.4,0.5,0.6,0.8S199.1,108,199.1,108.3z"/>
	<path class="st6" d="M21.2,208.1c1,0,1.8-0.8,1.8-1.8s-0.8-1.8-1.8-1.8c-1,0-1.8,0.8-1.8,1.8S20.2,208.1,21.2,208.1z"/>
	<path class="st6" d="M324.2,476c1.5,0,2.6-1.2,2.6-2.6c0-1.5-1.2-2.6-2.6-2.6c-1.5,0-2.6,1.2-2.6,2.6
		C321.6,474.8,322.8,476,324.2,476z"/>
	<path class="st6" d="M387.4,369.1c1,0,1.8-0.8,1.8-1.8s-0.8-1.8-1.8-1.8s-1.8,0.8-1.8,1.8S386.4,369.1,387.4,369.1z"/>
	<path class="st6" d="M509.2,38.8c0,0.4-0.1,0.7-0.3,1c-0.2,0.3-0.5,0.5-0.8,0.7c-0.3,0.1-0.7,0.2-1.1,0.1c-0.4-0.1-0.7-0.2-0.9-0.5
		c-0.3-0.3-0.4-0.6-0.5-0.9c-0.1-0.4,0-0.7,0.1-1.1c0.1-0.3,0.4-0.6,0.7-0.8c0.3-0.2,0.7-0.3,1-0.3c0.5,0,1,0.2,1.3,0.5
		C509,37.9,509.2,38.3,509.2,38.8z"/>
	<path class="st6" d="M159.9,1.8c0,0.4-0.1,0.7-0.3,1c-0.2,0.3-0.5,0.5-0.8,0.7c-0.3,0.1-0.7,0.2-1.1,0.1s-0.7-0.2-0.9-0.5
		c-0.3-0.3-0.4-0.6-0.5-0.9c-0.1-0.4,0-0.7,0.1-1.1c0.1-0.3,0.4-0.6,0.7-0.8c0.3-0.2,0.7-0.3,1-0.3c0.5,0,0.9,0.2,1.3,0.5
		C159.7,0.9,159.9,1.3,159.9,1.8z"/>
	<path class="st6" d="M305.7,98.1c1,0,1.8-0.8,1.8-1.8c0-1-0.8-1.8-1.8-1.8c-1,0-1.8,0.8-1.8,1.8C303.9,97.2,304.7,98.1,305.7,98.1z
		"/>
</g>
<path class="st4" d="M116.1,98.1c16.8,0,30.4-13.6,30.4-30.4c0-16.8-13.6-30.4-30.4-30.4c-16.8,0-30.4,13.6-30.4,30.4
	C85.6,84.5,99.2,98.1,116.1,98.1z"/>
<path class="st7" d="M116.1,98.1c16.8,0,30.4-13.6,30.4-30.4c0-16.8-13.6-30.4-30.4-30.4c-16.8,0-30.4,13.6-30.4,30.4
	C85.6,84.5,99.2,98.1,116.1,98.1z"/>
<path class="st8" d="M105.6,44.7c-4.1,0-8.3,0.8-12.1,2.5c-4.7,5.1-7.5,11.7-7.9,18.7c-0.4,6.9,1.6,13.8,5.6,19.5
	c4,5.7,9.9,9.8,16.6,11.7c6.7,1.9,13.8,1.4,20.2-1.3c4-4.4,6.6-9.8,7.5-15.6s0.2-11.8-2.2-17.2c-2.4-5.4-6.3-10-11.2-13.2
	S111.4,44.7,105.6,44.7L105.6,44.7z"/>
<path class="st8" d="M102.5,52.7c0,0.5-0.2,1.1-0.5,1.5c-0.3,0.5-0.7,0.8-1.2,1c-0.5,0.2-1.1,0.3-1.6,0.2s-1-0.4-1.4-0.8
	c-0.4-0.4-0.7-0.9-0.8-1.4c-0.1-0.5-0.1-1.1,0.2-1.6c0.2-0.5,0.6-0.9,1-1.2c0.5-0.3,1-0.5,1.5-0.5c0.7,0,1.4,0.3,2,0.8
	C102.2,51.3,102.5,52,102.5,52.7z"/>
<path class="st8" d="M135.3,49.9c0,0.5-0.2,1.1-0.5,1.5c-0.3,0.5-0.7,0.8-1.2,1c-0.5,0.2-1.1,0.3-1.6,0.2c-0.5-0.1-1-0.4-1.4-0.8
	c-0.4-0.4-0.7-0.9-0.8-1.4c-0.1-0.5-0.1-1.1,0.2-1.6c0.2-0.5,0.6-0.9,1-1.2c0.5-0.3,1-0.5,1.5-0.5c0.7,0,1.4,0.3,2,0.8
	C135,48.5,135.3,49.2,135.3,49.9z"/>
<path class="st8" d="M129.7,69.8c0,0.9-0.3,1.8-0.8,2.5c-0.5,0.7-1.2,1.3-2,1.7c-0.8,0.3-1.7,0.4-2.6,0.3c-0.9-0.2-1.7-0.6-2.3-1.2
	c-0.6-0.6-1.1-1.4-1.2-2.3c-0.2-0.9-0.1-1.8,0.3-2.6c0.3-0.8,0.9-1.5,1.7-2c0.7-0.5,1.6-0.8,2.5-0.8c1.2,0,2.4,0.5,3.2,1.3
	C129.3,67.4,129.7,68.6,129.7,69.8z"/>
<path class="st8" d="M115.2,82.8c0,1.2-0.4,2.4-1,3.4c-0.7,1-1.6,1.8-2.7,2.2c-1.1,0.5-2.3,0.6-3.5,0.3c-1.2-0.2-2.3-0.8-3.1-1.7
	c-0.9-0.9-1.4-1.9-1.7-3.1c-0.2-1.2-0.1-2.4,0.3-3.5c0.5-1.1,1.2-2.1,2.2-2.7c1-0.7,2.2-1,3.4-1c1.6,0,3.2,0.6,4.3,1.8
	C114.6,79.6,115.2,81.2,115.2,82.8z"/>
<path class="st6" d="M476.9,434.9c3.4-14.4-5.5-28.8-19.9-32.1c-14.4-3.4-28.8,5.5-32.1,19.9c-3.4,14.4,5.5,28.8,19.9,32.1
	C459.1,458.1,473.5,449.2,476.9,434.9z"/>
<path class="st9" d="M476.9,434.9c3.4-14.4-5.5-28.8-19.9-32.1c-14.4-3.4-28.8,5.5-32.1,19.9c-3.4,14.4,5.5,28.8,19.9,32.1
	C459.1,458.1,473.5,449.2,476.9,434.9z"/>
<path class="st6" d="M467.7,408c-5.9-1.8-12.3-1.5-18,0.9c-5.7,2.4-10.4,6.7-13.3,12.1c-2.9,5.5-3.8,11.8-2.6,17.8
	c1.2,6.1,4.5,11.5,9.3,15.4c2.5,0.8,5.1,1.1,7.7,1.1c5.5,0,10.9-1.7,15.4-4.9c4.5-3.2,7.9-7.7,9.8-12.9c1.8-5.2,2-10.8,0.6-16.2
	C475.1,416.2,472,411.5,467.7,408z"/>
<path class="st4" d="M425.4,436.7c-28.5,13.4-7.3,23.8,32.9,9.3c37.2-13.4,51.4-30.2,18.1-25C478.2,428.1,431.5,446.2,425.4,436.7z"
	/>
<path class="st10" d="M467.4,167c-37.4,25.2-85.7,58.6-99.1,138.7h-2.8c13-79.2,59.6-113.3,97-138.7H467.4z"/>
<path class="st11" d="M274.2,417.7c-23.6,0-47-10.7-58.4-28.1c-7-10.8-15.2-33.3,9.1-63.3l2.2,1.8c-17.2,21.3-20.3,42.6-8.9,60.1
	c13.9,21.3,46.7,32,74.7,24.3c28.7-7.8,46.1-32.7,47.7-68.4c5.7-122,70.6-159.6,117.9-187c29.4-17,50.7-29.4,46-55.4
	c-0.7-3.6-2.1-6.1-4.4-7.6c-6-4-17.9-1.2-31.5,2c-26.8,6.3-63.6,14.8-85.5-22.4l2.4-1.4c20.8,35.5,55,27.5,82.4,21.1
	c14.3-3.3,26.6-6.2,33.7-1.6c3,2,4.8,5.1,5.6,9.4c5,27.9-18.1,41.3-47.3,58.2c-46.8,27.1-110.8,64.3-116.5,184.8
	c-1.8,37-19.9,62.8-49.8,70.9C287.2,416.9,280.7,417.7,274.2,417.7z"/>
<path class="st6" d="M274.2,417.7c-23.6,0-47-10.7-58.4-28.1c-7-10.8-15.2-33.3,9.1-63.3l2.2,1.8c-17.2,21.3-20.3,42.6-8.9,60.1
	c13.9,21.3,46.7,32,74.7,24.3c28.7-7.8,46.1-32.7,47.7-68.4c5.7-122,70.6-159.6,117.9-187c29.4-17,50.7-29.4,46-55.4
	c-0.7-3.6-2.1-6.1-4.4-7.6c-6-4-17.9-1.2-31.5,2c-26.8,6.3-63.6,14.8-85.5-22.4l2.4-1.4c20.8,35.5,55,27.5,82.4,21.1
	c14.3-3.3,26.6-6.2,33.7-1.6c3,2,4.8,5.1,5.6,9.4c5,27.9-18.1,41.3-47.3,58.2c-46.8,27.1-110.8,64.3-116.5,184.8
	c-1.8,37-19.9,62.8-49.8,70.9C287.2,416.9,280.7,417.7,274.2,417.7z"/>
<path class="st4" d="M354.4,40.7c6.4,0,12.8,1,18.9,3c0,0,15.3,26.1,17.1,32.1c-0.6,5.9-10.6,15.5-10.6,15.5L354.4,40.7z"/>
<path class="st9" d="M354.4,40.7c6.4,0,12.8,1,18.9,3c0,0,15.3,26.1,17.1,32.1c-0.6,5.9-10.6,15.5-10.6,15.5L354.4,40.7z"/>
<path class="st4" d="M399.7,167.4c-5.9-7.2-11.3-14.8-16.1-22.8c-1.2-2-2.3-4.1-3.3-6.1c-0.6-1.2-1.2-2.4-1.7-3.6
	c-0.7-1.2-1.3-2.4-1.7-3.7c-1.7-17.6,4.4-30.6-1.4-44.7l-22.9,8.9c0,0,1.9,25.2,6.4,40.3c2.8,9.4,9,17.4,15,24.9
	c1.9,2.3,3.7,4.7,5.6,7.1c1.9,2.3,3.8,4.3,5.6,6.5c2.7,3.3,3.6,6.6,1.6,10.5l-0.3,0.6c-0.6,1,2.1,2.2,3.9,0c2.8-3.6,2.4-3.4,4.8-6.4
	c1.5-1.8,3.2-3.9,4.6-5.6c0.7-0.8,1.1-1.9,1.1-3C400.7,169.3,400.4,168.2,399.7,167.4z"/>
<path class="st7" d="M399.7,167.4c-5.9-7.2-11.3-14.8-16.1-22.8c-1.2-2-2.3-4.1-3.3-6.1c-0.6-1.2-1.2-2.4-1.7-3.6
	c-0.7-1.2-1.3-2.4-1.7-3.7c-1.7-17.6,4.4-30.6-1.4-44.7l-22.9,8.9c0,0,1.9,25.2,6.4,40.3c2.8,9.4,9,17.4,15,24.9
	c1.9,2.3,3.7,4.7,5.6,7.1c1.9,2.3,3.8,4.3,5.6,6.5c2.7,3.3,3.6,6.6,1.6,10.5l-0.3,0.6c-0.6,1,2.1,2.2,3.9,0c2.8-3.6,2.4-3.4,4.8-6.4
	c1.5-1.8,3.2-3.9,4.6-5.6c0.7-0.8,1.1-1.9,1.1-3C400.7,169.3,400.4,168.2,399.7,167.4z"/>
<path class="st8" d="M394.1,160.1c-3.6,3.9-7.7,7.4-12,10.4c0.6,0.7,1.2,1.4,1.8,2c4.4-3,8.3-6.5,11.8-10.4L394.1,160.1z"/>
<path class="st8" d="M399.7,167.4l-0.2-0.2c-1.1,1.2-1.7,2.8-1.8,4.4c-0.1,1.1,0.1,2.2,0.5,3.3l1.3-1.6c0.7-0.8,1.1-1.9,1.1-2.9
	C400.7,169.3,400.3,168.2,399.7,167.4z"/>
<path class="st4" d="M349,57.4c-2.5,3.7-5.5,7.1-8.9,10c-1.9,1.6-3.9,3-6.1,4.2c-1.2,0.6-2.4,1.1-3.6,1.5l-0.9,0.3l-0.3,0.1
	l-0.7,0.2c-0.4,0.1-0.8,0.2-1.2,0.2c-1.2,0.1-2.4,0-3.5-0.3c-1.4-0.4-2.8-1-4.1-1.8c-1-0.6-2-1.3-3-2c-1.7-1.3-3.4-2.7-5-4.2
	c-3-2.9-5.8-6-8.3-9.4c-0.5-0.7-0.7-1.5-0.7-2.3c0-0.8,0.4-1.6,0.9-2.2s1.3-1,2.1-1.1c0.8-0.1,1.6,0.1,2.3,0.5h0.1
	c3.3,2.1,6.6,4.3,9.8,6.2c1.6,1,3.2,1.9,4.8,2.7c0.7,0.4,1.5,0.7,2.2,1c0.5,0.2,1,0.3,1.5,0.4c0.1,0,0-0.1-0.5-0.1
	c-0.2,0-0.3,0-0.5,0l-0.3,0.1l0.5-0.2c0.6-0.3,1.2-0.7,1.8-1.1c1.2-0.9,2.4-1.9,3.5-2.9c2.4-2.5,4.7-5.2,6.8-8
	c1.2-1.3,2.8-2.1,4.5-2.3c1.7-0.2,3.5,0.3,4.8,1.3c1.4,1,2.3,2.5,2.7,4.2c0.3,1.7,0,3.5-0.9,4.9L349,57.4z"/>
<path class="st7" d="M349,57.4c-2.5,3.7-5.5,7.1-8.9,10c-1.9,1.6-3.9,3-6.1,4.2c-1.2,0.6-2.4,1.1-3.6,1.5l-0.9,0.3l-0.3,0.1
	l-0.7,0.2c-0.4,0.1-0.8,0.2-1.2,0.2c-1.2,0.1-2.4,0-3.5-0.3c-1.4-0.4-2.8-1-4.1-1.8c-1-0.6-2-1.3-3-2c-1.7-1.3-3.4-2.7-5-4.2
	c-3-2.9-5.8-6-8.3-9.4c-0.5-0.7-0.7-1.5-0.7-2.3c0-0.8,0.4-1.6,0.9-2.2s1.3-1,2.1-1.1c0.8-0.1,1.6,0.1,2.3,0.5h0.1
	c3.3,2.1,6.6,4.3,9.8,6.2c1.6,1,3.2,1.9,4.8,2.7c0.7,0.4,1.5,0.7,2.2,1c0.5,0.2,1,0.3,1.5,0.4c0.1,0,0-0.1-0.5-0.1
	c-0.2,0-0.3,0-0.5,0l-0.3,0.1l0.5-0.2c0.6-0.3,1.2-0.7,1.8-1.1c1.2-0.9,2.4-1.9,3.5-2.9c2.4-2.5,4.7-5.2,6.8-8
	c1.2-1.3,2.8-2.1,4.5-2.3c1.7-0.2,3.5,0.3,4.8,1.3c1.4,1,2.3,2.5,2.7,4.2c0.3,1.7,0,3.5-0.9,4.9L349,57.4z"/>
<path class="st4" d="M298.2,48.3l1.6,2.8c0,0,1.2,3.6,3.7,4.3l6.8-2.2l-0.3-0.6c-0.9-1.3-0.8-3.8-0.5-6c0.3-2.1-0.8-2.2-1.6-1.7
	c-0.6,0.7-1,1.4-1.2,2.3c-0.3-0.5-0.7-0.9-1.1-1.3l-2.1-2.1c-0.4-0.4-1-0.7-1.6-0.7s-1.2,0.2-1.6,0.6l-1.7,1.5
	c-0.4,0.4-0.7,0.9-0.7,1.4C297.8,47.3,297.9,47.8,298.2,48.3z"/>
<path class="st7" d="M298.2,48.3l1.6,2.8c0,0,1.2,3.6,3.7,4.3l6.8-2.2l-0.3-0.6c-0.9-1.3-0.8-3.8-0.5-6c0.3-2.1-0.8-2.2-1.6-1.7
	c-0.6,0.7-1,1.4-1.2,2.3c-0.3-0.5-0.7-0.9-1.1-1.3l-2.1-2.1c-0.4-0.4-1-0.7-1.6-0.7s-1.2,0.2-1.6,0.6l-1.7,1.5
	c-0.4,0.4-0.7,0.9-0.7,1.4C297.8,47.3,297.9,47.8,298.2,48.3z"/>
<path class="st6" d="M361.2,38.3c-7.5,2-14.7,5-21.3,9c-1,0.6-1.9,1.6-2.3,2.7c-0.5,1.1-0.6,2.4-0.4,3.6
	c2.7,13.1,8.8,30.7,15.4,41.9l30.7-12.7c0.2-5.4-7.3-23-14.9-39.9C367.1,39.8,364.5,37.5,361.2,38.3z"/>
<path class="st12" d="M361.2,38.3c-7.5,2-14.7,5-21.3,9c-1,0.6-1.9,1.6-2.3,2.7c-0.5,1.1-0.6,2.4-0.4,3.6
	c2.7,13.1,8.8,30.7,15.4,41.9l30.7-12.7c0.2-5.4-7.3-23-14.9-39.9C367.1,39.8,364.5,37.5,361.2,38.3z"/>
<path class="st8" d="M373.2,53.5l-6.1-2c1.4,3.6,6.3,8.1,9.7,10.7C375.7,59.5,374.5,56.5,373.2,53.5z"/>
<path class="st6" d="M359.2,24.5c-2.5-4.8-8-7.3-14.6-6.7c-5.6,0.5-10.5,6.1-9.9,9.2c0.6,3.1,5.3,4.4,6.1,5.4l-3.8,2.8
	c-0.5,0.3-0.8,0.7-1.1,1.2c-0.3,0.5-0.5,1-0.6,1.6s0,1.1,0.1,1.7c0.1,0.5,0.4,1.1,0.8,1.5c1.6,2.1,3.8,4.2,5,5.7
	c10.6-0.3,18.5-4.3,21.4-8.2C361.5,33.7,361.7,29.3,359.2,24.5z"/>
<path class="st12" d="M359.2,24.5c-2.5-4.8-8-7.3-14.6-6.7c-5.6,0.5-10.5,6.1-9.9,9.2c0.6,3.1,5.3,4.4,6.1,5.4l-3.8,2.8
	c-0.5,0.3-0.8,0.7-1.1,1.2c-0.3,0.5-0.5,1-0.6,1.6s0,1.1,0.1,1.7c0.1,0.5,0.4,1.1,0.8,1.5c1.6,2.1,3.8,4.2,5,5.7
	c10.6-0.3,18.5-4.3,21.4-8.2C361.5,33.7,361.7,29.3,359.2,24.5z"/>
<path class="st13" d="M354,27.5c0.8,1.9,0.9,4.1,0.5,6.1c-0.4,2-1.5,3.9-3,5.3c-1.5,1.4-3.4,2.4-5.4,2.8s-4.2,0.1-6.1-0.7
	c-1.9-0.8-3.5-2.2-4.6-4c-1.1-1.8-1.7-3.8-1.7-5.9s0.7-4.1,1.9-5.8c1.2-1.7,2.9-3,4.8-3.8c2.6-1,5.5-1,8.1,0.2
	C351,22.8,353,24.9,354,27.5z"/>
<path class="st4" d="M444.2,152.7c-0.2-4.6-0.4-4.2-0.5-8c-0.1-2.4-0.1-5-0.1-7.3c0-1.1-0.4-2.1-1.1-2.9c-0.7-0.8-1.6-1.4-2.7-1.6
	c-1.8-0.4-3.7-0.7-5.6-1.1c-2.4-0.5-4.8-1.1-7.1-1.8c-1.8-0.5-3.6-1.1-5.4-1.8c-1.8-0.7-3.8-1.4-5.7-2.3c-2.2-0.9-4.4-1.9-6.5-3
	c-2.4-1.1-4.8-2.3-7.2-3.5c-9.1-15.1-9.3-25.1-19.1-36.8l-21.1,9.5c0,0,15.5,27.5,26,39.1c6.1,6.7,15.6,9.7,24.1,11.9
	c6.1,1.6,12.3,2.8,18.5,3.9c2.4,0.4,5,0.6,7.1,2.1c1.5,1.2,2.6,2.9,3,4.8c0.1,0.4,0.2,0.8,0.2,1.2
	C441.5,156.4,444.3,155.5,444.2,152.7z"/>
<path class="st12" d="M444.2,152.7c-0.2-4.6-0.4-4.2-0.5-8c-0.1-2.4-0.1-5-0.1-7.3c0-1.1-0.4-2.1-1.1-2.9c-0.7-0.8-1.6-1.4-2.7-1.6
	c-1.8-0.4-3.7-0.7-5.6-1.1c-2.4-0.5-4.8-1.1-7.1-1.8c-1.8-0.5-3.6-1.1-5.4-1.8c-1.8-0.7-3.8-1.4-5.7-2.3c-2.2-0.9-4.4-1.9-6.5-3
	c-2.4-1.1-4.8-2.3-7.2-3.5c-9.1-15.1-9.3-25.1-19.1-36.8l-21.1,9.5c0,0,15.5,27.5,26,39.1c6.1,6.7,15.6,9.7,24.1,11.9
	c6.1,1.6,12.3,2.8,18.5,3.9c2.4,0.4,5,0.6,7.1,2.1c1.5,1.2,2.6,2.9,3,4.8c0.1,0.4,0.2,0.8,0.2,1.2
	C441.5,156.4,444.3,155.5,444.2,152.7z"/>
<path class="st8" d="M433.5,131.6c-0.8-0.2-1.7-0.4-2.5-0.6c0.1,4.8-2.2,13.1-3,15.6l2.6,0.5C432.4,142.1,433.3,136.9,433.5,131.6z"
	/>
<path class="st8" d="M443.7,137.5c0-1.1-0.4-2.1-1.1-2.9c-0.7-0.8-1.6-1.4-2.7-1.6l-1.4-0.3c0.2,1.6,1,3,2.3,4
	c0.8,0.7,1.7,1.3,2.8,1.6C443.7,138,443.7,137.7,443.7,137.5z"/>
<path class="st14" d="M352,27.6c0.6,2.1-1.8,4.3-3.7,2.5c-1.8-1.9-3.7-3.6-5.7-5.1c-1.9-1.2,0.6-3.3,3.7-2.5c1.3,0.3,2.5,1,3.5,1.9
	C350.8,25.2,351.6,26.3,352,27.6z"/>
<path class="st4" d="M352.2,94.7c-1,0.4,0.8,2,0.8,2s19.5-6.7,31.3-13.5c0-0.4,0-0.8-0.2-1.2c-0.2-0.4-0.4-0.7-0.7-1
	C373.2,86.2,362.8,90.8,352.2,94.7z"/>
<path class="st15" d="M352.2,94.7c-1,0.4,0.8,2,0.8,2s19.5-6.7,31.3-13.5c0-0.4,0-0.8-0.2-1.2c-0.2-0.4-0.4-0.7-0.7-1
	C373.2,86.2,362.8,90.8,352.2,94.7z"/>
<path class="st6" d="M366.5,37.4c3.8,1.9,7.4,4,11.1,6.3c1.8,1.1,3.6,2.3,5.3,3.5c1.8,1.3,3.5,2.5,5.3,4l0.7,0.5l0.8,0.8
	c0.5,0.4,1,0.9,1.4,1.4c0.4,0.5,0.8,1,1.2,1.4c0.4,0.4,0.8,0.9,1.1,1.4c1.3,1.8,2.5,3.6,3.6,5.6c2.2,3.7,4,7.6,5.6,11.6
	c0.3,0.8,0.3,1.6,0,2.4c-0.3,0.8-0.8,1.4-1.5,1.8c-0.7,0.4-1.5,0.6-2.3,0.5c-0.8-0.1-1.5-0.5-2.1-1.1l-0.1-0.1c-2.8-3-5.5-6.1-8.2-9
	c-2.7-2.9-5.4-5.8-7.7-7.1c-3.2-2-6.7-3.9-10.2-5.8l-10.5-5.8c-1.6-0.9-2.8-2.3-3.4-4.1c-0.5-1.8-0.4-3.7,0.5-5.3
	c0.9-1.6,2.3-2.8,4.1-3.4c1.8-0.5,3.7-0.4,5.3,0.5L366.5,37.4z"/>
<path class="st12" d="M366.5,37.4c3.8,1.9,7.4,4,11.1,6.3c1.8,1.1,3.6,2.3,5.3,3.5c1.8,1.3,3.5,2.5,5.3,4l0.7,0.5l0.8,0.8
	c0.5,0.4,1,0.9,1.4,1.4c0.4,0.5,0.8,1,1.2,1.4c0.4,0.4,0.8,0.9,1.1,1.4c1.3,1.8,2.5,3.6,3.6,5.6c2.2,3.7,4,7.6,5.6,11.6
	c0.3,0.8,0.3,1.6,0,2.4c-0.3,0.8-0.8,1.4-1.5,1.8c-0.7,0.4-1.5,0.6-2.3,0.5c-0.8-0.1-1.5-0.5-2.1-1.1l-0.1-0.1c-2.8-3-5.5-6.1-8.2-9
	c-2.7-2.9-5.4-5.8-7.7-7.1c-3.2-2-6.7-3.9-10.2-5.8l-10.5-5.8c-1.6-0.9-2.8-2.3-3.4-4.1c-0.5-1.8-0.4-3.7,0.5-5.3
	c0.9-1.6,2.3-2.8,4.1-3.4c1.8-0.5,3.7-0.4,5.3,0.5L366.5,37.4z"/>
<path class="st6" d="M405.8,80.7l-1.2-3c0,0-0.7-3.8-3-4.8l-6.9,1.1l0.2,0.6c0.6,1.4,0.2,3.9-0.5,6c-0.6,2,0.4,2.3,1.3,1.9
	c0.5-0.2,1-1.1,1.5-2.1c0.3,0.5,0.6,0.9,0.9,1.4l1.7,2.3c0.4,0.5,0.9,0.8,1.5,0.9c0.6,0.1,1.2,0,1.7-0.3l1.9-1.2
	c0.4-0.3,0.8-0.7,0.9-1.3C406,81.7,406,81.2,405.8,80.7z"/>
<path class="st12" d="M405.8,80.7l-1.2-3c0,0-0.7-3.8-3-4.8l-6.9,1.1l0.2,0.6c0.6,1.4,0.2,3.9-0.5,6c-0.6,2,0.4,2.3,1.3,1.9
	c0.5-0.2,1-1.1,1.5-2.1c0.3,0.5,0.6,0.9,0.9,1.4l1.7,2.3c0.4,0.5,0.9,0.8,1.5,0.9c0.6,0.1,1.2,0,1.7-0.3l1.9-1.2
	c0.4-0.3,0.8-0.7,0.9-1.3C406,81.7,406,81.2,405.8,80.7z"/>
<path class="st8" d="M360.6,53.3l-1.7,0.1l-10.4,25.1c0.6,0,1.1,0,1.7-0.1c0,0,13.6-5.1,17.7-6.9C365.1,65.8,360.6,53.3,360.6,53.3z
	"/>
<path class="st14" d="M341.6,59.9c1.3,6.6,3.6,12.9,6.9,18.7c5.1-1.8,13.6-5.1,17.7-6.9c-2.8-5.9-5.2-12-7.4-18.2
	C354.6,53.8,345,57.4,341.6,59.9z"/>
<path class="st6" d="M352,65.4c-0.2,0.7-0.6,1.3-1.1,1.7c-0.5,0.5-1.2,0.7-1.9,0.8c-0.7,0.1-1.4-0.1-2-0.4c-0.6-0.3-1.1-0.8-1.5-1.5
	c-0.3-0.6-0.5-1.3-0.4-2c0.1-0.7,0.3-1.4,0.8-1.9c0.4-0.5,1-1,1.7-1.2c0.7-0.2,1.4-0.2,2.1,0c0.9,0.3,1.7,0.9,2.1,1.7
	C352.1,63.5,352.2,64.4,352,65.4z"/>
<path class="st6" d="M354.6,60.6c-0.1,0.2-0.2,0.4-0.4,0.6c-0.2,0.2-0.4,0.3-0.6,0.3c-0.2,0-0.5,0-0.7-0.1c-0.2-0.1-0.4-0.3-0.5-0.5
	c-0.1-0.2-0.2-0.4-0.1-0.7c0-0.2,0.1-0.5,0.3-0.6c0.2-0.2,0.4-0.3,0.6-0.4c0.2-0.1,0.5-0.1,0.7,0c0.3,0.1,0.5,0.3,0.7,0.5
	C354.6,60,354.7,60.3,354.6,60.6z"/>
<path class="st6" d="M357.7,59.4c0,0.2-0.1,0.3-0.2,0.4c-0.1,0.1-0.2,0.2-0.4,0.3c-0.1,0.1-0.3,0.1-0.5,0.2s-0.3,0-0.5,0
	c-0.2,0-0.3-0.1-0.4-0.2s-0.2-0.2-0.3-0.4c-0.1-0.1-0.1-0.3-0.1-0.5c0-0.2,0-0.3,0.1-0.5c0-0.1,0.1-0.3,0.2-0.4
	c0.1-0.1,0.2-0.2,0.4-0.3c0.1-0.1,0.3-0.1,0.4-0.1c0.2,0,0.3,0,0.5,0c0.3,0.1,0.5,0.3,0.7,0.6C357.8,58.7,357.8,59.1,357.7,59.4z"/>
<path class="st6" d="M362.1,70.2l-12.9,5.1l-0.8-2.5l12.8-5.1L362.1,70.2z"/>
<path class="st10" d="M291.2,263.3c0,8.1-0.8,16.2-2.3,24.1c-1.6,7.1-4.2,12.4-7.6,15.7c-1.6,1.6-3.5,2.9-5.6,3.7
	c-2.1,0.9-4.4,1.3-6.6,1.2c-7.1,0-12.6-3.9-16.4-11.7c-0.7-1.4-1.2-2.8-1.7-4.3c-7.9,6.8-15.3,14.3-22.1,22.2l-7.4,8.7
	c4,4,8.6,7.4,13.6,10c8.7,4.5,20,6.7,34.1,6.7c2.5,0,4.9-0.1,7.2-0.2c8.5-12.6,15.5-26.1,21-40.3l20.6-53.8L291.2,263.3z"/>
<path class="st6" d="M105.2,336.7l24.3,24.3l68.1-64.2C174.1,287.9,128.5,313.3,105.2,336.7z"/>
<path class="st6" d="M190,421.5c-7.8-7.8-24.3-24.3-24.3-24.3l64.2-68.1C238.7,352.5,213.3,398.1,190,421.5z"/>
<path class="st4" d="M283,268.2l26.5-51.1l-51.1,26.6c-16.4,8.5-31.6,19.3-45.1,32l-87.2,82.1l42.8,42.8l82.1-87.2
	C263.8,299.8,274.5,284.6,283,268.2z"/>
<path class="st16" d="M283,268.2l26.5-51.1l-51.1,26.6c-16.4,8.5-31.6,19.3-45.1,32l-87.2,82.1l42.8,42.8l82.1-87.2
	C263.8,299.8,274.5,284.6,283,268.2z"/>
<path class="st14" d="M228.6,316c9.9,0,17.9-8,17.9-17.9c0-9.9-8-17.9-17.9-17.9c-9.9,0-17.9,8-17.9,17.9
	C210.6,307.9,218.7,316,228.6,316z"/>
<path class="st4" d="M228.6,309.6c6.4,0,11.5-5.2,11.5-11.5s-5.2-11.5-11.5-11.5c-6.4,0-11.5,5.2-11.5,11.5S222.2,309.6,228.6,309.6
	z"/>
<path class="st8" d="M183.5,385.1l-41.9-41.9l34.3-32.3l39.9,39.9L183.5,385.1z"/>
<path class="st11" d="M114.7,375.1c-31.4,2.5-41.8,22.6-45.4,49.4c-1.8,13.6-2.6,27.4-14,35.4c-0.7,0.5-1.2,1.1-1.5,1.9
	c-0.3,0.8-0.3,1.6,0,2.4c0.3,0.8,0.8,1.5,1.4,2c0.7,0.5,1.5,0.7,2.3,0.7c42.2-1.3,61.8-22,64.3-30.6c-0.7,4.5-1.8,8.9-3.5,13.2
	c-0.3,0.7-0.4,1.6-0.2,2.4c0.2,0.8,0.6,1.5,1.2,2c0.6,0.5,1.4,0.8,2.2,0.9c0.8,0.1,1.6-0.1,2.3-0.6c11.8-7.4,26.7-21.1,27.7-43.2
	C142.9,398.7,114.7,375.1,114.7,375.1z"/>
<path class="st6" d="M114.7,375.1c-31.4,2.5-41.8,22.6-45.4,49.4c-1.8,13.6-2.6,27.4-14,35.4c-0.7,0.5-1.2,1.1-1.5,1.9
	c-0.3,0.8-0.3,1.6,0,2.4c0.3,0.8,0.8,1.5,1.4,2c0.7,0.5,1.5,0.7,2.3,0.7c42.2-1.3,61.8-22,64.3-30.6c-0.7,4.5-1.8,8.9-3.5,13.2
	c-0.3,0.7-0.4,1.6-0.2,2.4c0.2,0.8,0.6,1.5,1.2,2c0.6,0.5,1.4,0.8,2.2,0.9c0.8,0.1,1.6-0.1,2.3-0.6c11.8-7.4,26.7-21.1,27.7-43.2
	C142.9,398.7,114.7,375.1,114.7,375.1z"/>
<path class="st4" d="M156.4,420.5l-50.3-50.3l26.8-5.8l29.3,29.3L156.4,420.5z"/>
</svg>
