<svg width="107" height="30" viewBox="0 0 107 30" fill="none" xmlns="http://www.w3.org/2000/svg">
<g clip-path="url(#clip0_3704_204)">
<path d="M26.4083 23.7312L21.0833 29.0952C20.8535 29.3265 20.542 29.4563 20.2172 29.4563C19.8924 29.4563 19.5809 29.3265 19.3511 29.0952L14.2495 23.9568C14.0198 23.7254 13.7082 23.5955 13.3834 23.5955C13.0586 23.5955 12.747 23.7254 12.5173 23.9568L7.41624 29.0952C7.18647 29.3265 6.87496 29.4563 6.55017 29.4563C6.22538 29.4563 5.91387 29.3265 5.6841 29.0952L0.35852 23.7312C0.128971 23.4998 3.05176e-05 23.186 3.05176e-05 22.8589C3.05176e-05 22.5317 0.128971 22.218 0.35852 21.9865L13.3837 8.87005L20.4409 15.976L26.4083 21.9865C26.638 22.2179 26.767 22.5317 26.767 22.8589C26.767 23.1861 26.638 23.4998 26.4083 23.7312ZM18.7365 0.511719H8.03086C6.94112 0.511719 6.39624 1.84038 7.16506 2.61749L13.3837 8.86786L19.6023 2.61749C20.3738 1.84038 19.8273 0.511719 18.7365 0.511719Z" fill="#00031E"/>
<path d="M35.0786 1.45083L39.7896 20.0005L44.063 1.4673C44.1226 1.20921 44.2671 0.979016 44.4731 0.814196C44.6791 0.649376 44.9344 0.559632 45.1975 0.55957H54.5344L45.7145 28.6212C45.6397 28.8589 45.4917 29.0664 45.292 29.2137C45.0922 29.361 44.8511 29.4405 44.6035 29.4405H34.7463C34.2804 29.4405 33.7818 29.0756 33.638 28.6294L25.0873 2.10391C25.0305 1.92774 25.0159 1.74052 25.0446 1.55756C25.0734 1.3746 25.1447 1.20109 25.2528 1.05122C25.3609 0.901352 25.5027 0.779374 25.6665 0.695259C25.8304 0.611144 26.0117 0.56728 26.1956 0.567254H33.9502C34.209 0.567348 34.4604 0.654252 34.6648 0.814248C34.8691 0.974245 35.0147 1.19822 35.0786 1.45083Z" fill="#00031E"/>
<path d="M65.9994 17.7987L64.2215 20.0746V28.2672C64.2214 28.5783 64.0986 28.8767 63.8801 29.0967C63.6617 29.3167 63.3655 29.4404 63.0566 29.4405H55.3837C55.0747 29.4405 54.7784 29.3169 54.5599 29.0969C54.3415 28.8768 54.2188 28.5784 54.2188 28.2672V0.55957H63.0566C63.3655 0.55957 63.6618 0.683191 63.8803 0.903237C64.0988 1.12328 64.2215 1.42173 64.2215 1.73292V10.4101L70.3971 1.08203C70.5035 0.92131 70.6476 0.789528 70.8167 0.698385C70.9858 0.607243 71.1746 0.55956 71.3664 0.55957H79.1504C79.3631 0.559584 79.5716 0.618218 79.7536 0.729118C79.9355 0.840018 80.0838 0.998954 80.1824 1.1887C80.281 1.37844 80.3262 1.59176 80.3131 1.80552C80.2999 2.01929 80.2289 2.22535 80.1078 2.40137L73.5938 11.8655L80.7736 27.781C80.8542 27.9596 80.8891 28.1558 80.875 28.3515C80.8609 28.5473 80.7983 28.7364 80.6929 28.9014C80.5876 29.0665 80.4428 29.2024 80.2718 29.2966C80.1009 29.3907 79.9092 29.4402 79.7144 29.4405H71.5958C71.3658 29.4406 71.1409 29.3721 70.9496 29.2435C70.7583 29.115 70.609 28.9322 70.5208 28.7183L65.9994 17.7987Z" fill="#00031E"/>
<path d="M92.6944 30C88.2215 30 83.8386 28.2131 81.6335 24.884C81.5425 24.7448 81.482 24.5876 81.4561 24.423C81.4302 24.2584 81.4394 24.0901 81.4832 23.9293C81.527 23.7686 81.6043 23.6191 81.71 23.4908C81.8157 23.3625 81.9473 23.2584 82.0961 23.1855L88.5991 19.9815C88.8404 19.8657 89.1135 19.8359 89.3739 19.8968C89.6342 19.9577 89.8663 20.1058 90.0321 20.3168C90.6021 21.021 91.403 21.381 92.4356 21.381C94.8804 21.381 96.2884 19.8509 96.2884 14.2163H96.1794C94.7349 17.1645 92.1043 18.6567 88.8073 18.6567C84.4728 18.6567 81.1758 15.6717 81.1758 10.4103C81.1731 4.29112 86.1374 0 93.0638 0C101.362 0 106.215 5.67192 106.215 15C106.216 23.6196 101.474 30 92.6944 30ZM93.139 7.31341C91.5087 7.31341 90.8789 8.6942 90.8789 10.4476C90.8789 12.521 91.8956 14.0253 94.4167 13.2049C94.6045 13.1418 94.7729 13.0309 94.9053 12.8827C95.0378 12.7346 95.1298 12.5544 95.1725 12.3597C95.8138 9.55473 95.0798 7.31341 93.139 7.31341Z" fill="#00031E"/>
</g>
<defs>
<clipPath id="clip0_3704_204">
<rect width="106.216" height="30" fill="white"/>
</clipPath>
</defs>
</svg>
