<svg width="95" height="95" viewBox="0 0 95 95" fill="none" xmlns="http://www.w3.org/2000/svg">
<g clip-path="url(#clip0_3716_595)">
<path d="M23.9897 50.6878H23.4586C21.5991 50.6878 20.2706 49.3594 20.2706 47.4999C20.2706 45.6404 21.5991 44.3119 23.4586 44.3119C25.3181 44.3119 26.9121 45.7731 26.9121 45.7731L30.1 40.7256C30.1 40.7256 27.7087 37.8032 22.6613 37.8032C17.0827 37.8032 12.8319 42.0541 12.8319 47.4999C12.8319 52.9457 17.0827 57.1966 22.6613 57.1966C28.2399 57.1966 30.3656 54.0086 30.3656 54.0086V47.4999H23.9897V50.6878Z" fill="#EA3F37"/>
<path d="M45.9063 48.2972L42.8511 37.8032H33.0211V57.1972H39.9281V46.4377L43.116 57.1972H48.6953L51.8832 46.4377V57.1972H58.7908V37.8032H48.9608L45.9063 48.2972Z" fill="#EA3F37"/>
<path d="M71.8069 37.8032C65.6966 37.8032 61.4458 42.0541 61.4458 47.4999C61.4458 52.9457 65.6966 57.1966 71.8069 57.1966C77.9172 57.1966 82.168 52.9457 82.168 47.4999C82.168 42.0541 77.9172 37.8032 71.8069 37.8032ZM71.8069 50.6878C70.2129 50.6878 68.8845 49.3594 68.8845 47.4999C68.8845 45.6404 70.2129 44.3119 71.8069 44.3119C73.4009 44.3119 74.7293 45.6404 74.7293 47.4999C74.7293 49.3594 73.4009 50.6878 71.8069 50.6878Z" fill="#EA3F37"/>
<path d="M47.4997 0C21.3085 0 0 21.3087 0 47.5C0 73.6913 21.3085 95 47.4997 95C73.6908 95 95 73.6913 95 47.5C95 21.3087 73.6915 0 47.4997 0ZM47.4997 88.3143C37.6485 88.3143 28.601 84.8056 21.5414 78.9723L39.6363 60.8773H28.6081L16.0276 73.4578C10.195 66.3981 6.68634 57.3513 6.68634 47.5C6.68634 24.995 24.9955 6.68638 47.4997 6.68638C57.3509 6.68638 66.3983 10.1951 73.458 16.0277L55.3618 34.124H66.39L78.9724 21.5415C84.8056 28.6012 88.3143 37.6487 88.3143 47.5C88.3143 70.005 70.0051 88.3136 47.5003 88.3136L47.4997 88.3143Z" fill="#EA3F37"/>
</g>
<defs>
<clipPath id="clip0_3716_595">
<rect width="95" height="95" fill="white"/>
</clipPath>
</defs>
</svg>
