<svg width="139" height="89" viewBox="0 0 139 89" fill="none" xmlns="http://www.w3.org/2000/svg">
<g clip-path="url(#clip0_3716_600)">
<path d="M70.545 63.5727L73.4417 61.7124L73.1604 65.141L75.8276 67.3173L72.4718 68.1071L71.2232 71.3117L69.4362 68.3715L65.9941 68.176L68.2428 65.5699L67.3687 62.2421L70.545 63.5727Z" fill="#EA3F37"/>
<path d="M59.38 63.9889L61.2706 62.7754L61.0859 65.0137L62.8281 66.4348L60.6372 66.9498L59.8227 69.0417L58.6552 67.1229L56.4082 66.9954L57.8768 65.2936L57.3056 63.1216L59.38 63.9889Z" fill="#EA3F37"/>
<path d="M81.6133 62.0478L83.5048 60.8335L83.321 63.0718L85.0623 64.4937L82.8723 65.0088L82.056 67.1007L80.8902 65.181L78.6423 65.0535L80.111 63.3526L79.5389 61.1797L81.6133 62.0478Z" fill="#EA3F37"/>
<path d="M67.2013 25.427L64.3045 27.2873L64.5867 23.8587L61.9186 21.6824L65.2744 20.8926L66.523 17.688L68.3101 20.6274L71.753 20.8237L69.5035 23.4298L70.3776 26.7568L67.2013 25.427Z" fill="#EA3F37"/>
<path d="M78.3671 25.01L76.4757 26.2244L76.6603 23.986L74.9182 22.565L77.109 22.0491L77.9236 19.958L79.0911 21.876L81.3381 22.0043L79.8703 23.7052L80.4407 25.8781L78.3671 25.01Z" fill="#EA3F37"/>
<path d="M56.133 26.9514L54.2423 28.1658L54.4261 25.9274L52.684 24.5064L54.8748 23.9914L55.6903 21.8994L56.8569 23.8182L59.1039 23.9457L57.6361 25.6475L58.2073 27.8196L56.133 26.9514Z" fill="#EA3F37"/>
<path d="M33.0868 40.5645L35.5685 68.8775L2.48168 71.7661L4.05905 68.3901L9.4297 56.8952L2.14084 46.5061L0 43.4539L33.0868 40.5645Z" fill="#EA3F37"/>
<path d="M136.859 56.7936L139 59.8458L105.913 62.7352L103.432 34.4222L136.518 31.5327L134.94 34.9096L129.57 46.4045L136.859 56.7936Z" fill="#EA3F37"/>
<path d="M32.7028 69.1273L17.8929 63.2166L31.4619 54.9712L32.7028 69.1273Z" fill="#B22424"/>
<path d="M107.538 48.3286L108.779 62.4847L122.336 54.0963" fill="#B22424"/>
<path d="M64.9879 0.172511C40.4585 2.3144 22.3144 23.8952 24.4604 48.3784C26.6064 72.8616 48.2297 90.9699 72.7592 88.828C97.2904 86.6862 115.433 65.1053 113.287 40.6221C111.141 16.139 89.5183 -1.96938 64.9879 0.172511ZM71.5684 75.2429C54.5556 76.7286 39.5585 64.1692 38.07 47.1899C36.5815 30.2098 49.1659 15.2415 66.1787 13.7559C83.1907 12.2703 98.1869 24.8305 99.6754 41.8106C100.751 54.0875 88.5803 73.7573 71.5684 75.2429Z" fill="#EA3F37"/>
<path d="M119.854 25.7838L15.411 34.9038L17.8928 63.2164L122.335 54.0964L119.854 25.7838Z" fill="#D33131"/>
<path d="M92.6057 17.8353L90.4218 17.3022L92.1743 15.8941L92.0086 13.6558L93.8906 14.8865L95.9727 14.0373L95.3808 16.2024L96.8348 17.9172L94.5878 18.0257L93.4022 19.9342L92.6057 17.8353Z" fill="white"/>
<path d="M45.1405 71.1638L47.3254 71.6977L45.572 73.105L45.7377 75.3442L43.8557 74.1135L41.7735 74.9627L42.3655 72.7975L40.9115 71.0819L43.1585 70.9743L44.3441 69.0649L45.1405 71.1638Z" fill="white"/>
<path d="M40.952 22.2415L40.5327 24.4463L39.033 22.7721L36.8007 23.0554L37.9336 21.115L36.975 19.0842L39.1728 19.5605L40.8122 18.0215L41.0383 20.2555L43.0109 21.3372L40.952 22.2415Z" fill="white"/>
<path d="M96.7941 66.759L97.2135 64.5542L98.7141 66.2276L100.946 65.9451L99.8125 67.8855L100.771 69.9162L98.5734 69.44L96.9339 70.979L96.7079 68.745L94.7361 67.6633L96.7941 66.759Z" fill="white"/>
<path d="M50.6242 82.1807L53.7574 74.5967L55.711 75.4011L54.4106 78.548L57.1701 76.0022L59.1677 76.8238L55.9836 79.3972L56.0777 84.426L54.0266 83.5819L54.1336 80.4169L53.4114 80.9664L52.5769 82.9851L50.6234 82.1807H50.6242Z" fill="white"/>
<path d="M58.4377 80.8388C58.6327 79.8708 58.8131 79.1723 58.9796 78.7417C59.1462 78.312 59.3429 77.989 59.5699 77.7737C59.8943 77.4697 60.28 77.2725 60.7253 77.182C61.1705 77.0925 61.6814 77.1045 62.2569 77.2208C62.8359 77.3371 63.3114 77.5222 63.6807 77.7754C64.0509 78.0286 64.327 78.3585 64.5082 78.765C64.6411 79.0561 64.7015 79.4324 64.6885 79.8932C64.6756 80.354 64.5721 81.0671 64.3779 82.0308C64.1846 82.9919 64.0043 83.6887 63.8369 84.1202C63.6703 84.5525 63.4693 84.8772 63.2337 85.0942C62.9136 85.3956 62.5313 85.5929 62.0878 85.6842C61.6443 85.7763 61.1343 85.7643 60.5587 85.6488C59.9832 85.5334 59.5077 85.3474 59.1324 85.0908C58.757 84.8341 58.4783 84.5051 58.2954 84.1021C58.1694 83.8161 58.1124 83.4424 58.1262 82.9816C58.1392 82.5208 58.2436 81.806 58.4386 80.838L58.4377 80.8388ZM62.1128 82.3314L62.4053 80.8793C62.5848 79.9879 62.6331 79.4247 62.5512 79.1887C62.4692 78.9527 62.2647 78.8029 61.9385 78.7374C61.6201 78.6737 61.3776 78.7374 61.2111 78.9286C61.0445 79.1198 60.8728 79.6555 60.6959 80.5366L60.4034 81.9886C60.2282 82.8593 60.1791 83.4174 60.2576 83.6628C60.3361 83.9083 60.538 84.0642 60.8642 84.1296C61.1869 84.1942 61.4311 84.1314 61.5968 83.9402C61.7633 83.749 61.9351 83.2133 62.1128 82.3322V82.3314Z" fill="white"/>
<path d="M65.7792 83.4658L67.7164 83.4831L67.7146 83.7225C67.7103 84.1738 67.7664 84.4916 67.882 84.6776C67.9977 84.8636 68.1944 84.9575 68.4723 84.9601C68.6958 84.9618 68.8718 84.8938 69.0021 84.7542C69.1324 84.6147 69.1988 84.4252 69.2005 84.1832C69.204 83.7853 68.8925 83.4012 68.266 83.0301C68.1651 82.9655 68.0874 82.9164 68.0322 82.8845C68.0123 82.8733 67.9796 82.8535 67.933 82.8251C67.0882 82.2989 66.5636 81.9036 66.3582 81.6392C66.2115 81.4394 66.0993 81.2146 66.0234 80.9648C65.9475 80.7159 65.9103 80.4438 65.9129 80.1492C65.919 79.4318 66.1528 78.8712 66.6145 78.4672C67.0761 78.0633 67.7077 77.8644 68.5102 77.8713C69.3826 77.879 70.047 78.0857 70.5035 78.4914C70.96 78.897 71.1843 79.4792 71.1774 80.2388C71.1774 80.2707 71.1748 80.3154 71.1705 80.3723C71.1662 80.4291 71.1636 80.4731 71.1636 80.5058L69.2678 80.4886V80.3869C69.2722 80.0287 69.2126 79.7565 69.091 79.5705C68.9693 79.3845 68.7915 79.2906 68.556 79.2889C68.3566 79.2871 68.1953 79.35 68.0727 79.4792C67.9502 79.6075 67.8881 79.7789 67.8864 79.9916C67.8829 80.3396 68.2246 80.7125 68.9097 81.1086C69.034 81.1844 69.1298 81.2421 69.1962 81.2818C69.2506 81.311 69.3265 81.3558 69.424 81.417C70.1601 81.8493 70.6303 82.2127 70.8348 82.5056C70.9626 82.695 71.0592 82.9095 71.1256 83.1498C71.1921 83.39 71.224 83.6501 71.2214 83.9309C71.2137 84.7508 70.9738 85.3812 70.5 85.8204C70.0263 86.2605 69.3533 86.4758 68.4809 86.4681C67.5654 86.4603 66.8794 86.2416 66.4229 85.8136C65.9664 85.3855 65.7429 84.7517 65.7498 83.9137C65.7498 83.8603 65.7516 83.8043 65.7542 83.7457C65.7568 83.6872 65.7645 83.5942 65.7775 83.4667L65.7792 83.4658Z" fill="white"/>
<path d="M73.5098 86.1158L72.0412 78.0452L74.1208 77.668L74.6756 80.7185L76.3444 80.4162L75.7896 77.3657L77.8226 76.9971L79.2912 85.0686L77.2583 85.4372L76.6491 82.0878L74.9802 82.3901L75.5894 85.7386L73.5098 86.1158Z" fill="white"/>
<path d="M81.8316 84.2975L78.8546 76.6515L83.44 74.873L84.0182 76.3578L81.3915 77.3767L81.9386 78.7822L84.3625 77.8417L84.9596 79.3756L82.5357 80.316L83.1855 81.9843L85.8121 80.9654L86.417 82.5191L81.8316 84.2975Z" fill="white"/>
<path d="M88.6424 81.4323L84.29 74.4736L86.3066 73.217C86.9675 72.8054 87.4646 72.5341 87.7985 72.404C88.1324 72.2731 88.4345 72.218 88.7045 72.2378C89.0255 72.2636 89.3146 72.3627 89.5709 72.5332C89.8272 72.7037 90.0584 72.9535 90.2638 73.2816C90.514 73.6821 90.6469 74.0662 90.6624 74.434C90.678 74.8008 90.577 75.1738 90.3613 75.551C91.0551 75.4287 91.6781 75.7749 92.2295 76.5913C92.2372 76.6034 92.2415 76.6112 92.2433 76.6137C92.3011 76.699 92.3839 76.8239 92.4909 76.9875C92.994 77.7626 93.4435 78.1648 93.8405 78.1932L91.7436 79.4997C91.6064 79.3843 91.4779 79.2543 91.3579 79.1087C91.2371 78.964 91.1206 78.8013 91.0076 78.6204C90.9377 78.5093 90.8566 78.3724 90.7643 78.2096C90.6719 78.0477 90.6107 77.9418 90.5805 77.8935C90.3147 77.4689 90.0714 77.2166 89.8505 77.1365C89.6296 77.0564 89.3603 77.1158 89.0411 77.3139L88.6726 77.5439L90.4131 80.3274L88.6398 81.4323H88.6424ZM87.8744 76.2658C87.9046 76.2469 87.9443 76.2245 87.9944 76.1978C88.0444 76.1711 88.0807 76.1504 88.104 76.1358C88.4759 75.9041 88.6968 75.6724 88.7658 75.4407C88.8357 75.2091 88.7693 74.9317 88.5673 74.6096C88.381 74.3117 88.1713 74.148 87.9383 74.1187C87.7062 74.0895 87.4033 74.1911 87.0314 74.4228C87.0081 74.4374 86.9736 74.4615 86.927 74.4942C86.8804 74.527 86.8424 74.5528 86.8131 74.5718L87.8727 76.2658H87.8744Z" fill="white"/>
<path d="M48.6931 17.501L44.2759 10.5835L46.0578 9.45015L47.8906 12.3206L47.3893 8.60356L49.2108 7.44434L49.4904 11.524L53.6677 14.3377L51.7961 15.5279L49.2626 13.6211L49.298 14.5271L50.4741 16.3685L48.6922 17.5018L48.6931 17.501Z" fill="white"/>
<path d="M52.237 10.5218C51.8754 9.6029 51.6476 8.91822 51.5544 8.46607C51.4604 8.01478 51.4509 7.6367 51.5251 7.33354C51.633 6.90207 51.8496 6.52829 52.1749 6.21222C52.5002 5.89614 52.9359 5.63088 53.483 5.41644C54.0327 5.20113 54.5323 5.0995 54.981 5.11242C55.4297 5.12534 55.8405 5.25366 56.2141 5.49653C56.4842 5.66964 56.7387 5.95299 56.9777 6.34743C57.2168 6.74188 57.5171 7.39728 57.8769 8.31277C58.2358 9.22482 58.4628 9.90777 58.5568 10.3608C58.6509 10.8138 58.6587 11.1953 58.5784 11.5054C58.4731 11.9317 58.2591 12.3037 57.9356 12.6215C57.6128 12.9385 57.1779 13.2046 56.6317 13.419C56.0855 13.6335 55.585 13.7342 55.1294 13.7213C54.6747 13.7093 54.2613 13.5827 53.8894 13.3432C53.628 13.171 53.3777 12.8876 53.1387 12.4932C52.8997 12.0988 52.5994 11.4416 52.237 10.5227V10.5218ZM56.1364 9.78892L55.5945 8.41095C55.2614 7.56522 54.9965 7.06484 54.7998 6.91154C54.6031 6.75824 54.3494 6.74188 54.0396 6.86331C53.7376 6.98216 53.5684 7.16647 53.5322 7.41708C53.496 7.6677 53.6426 8.21114 53.9723 9.0474L54.515 10.4254C54.8404 11.2522 55.1027 11.7474 55.3011 11.911C55.5005 12.0755 55.755 12.097 56.0639 11.9756C56.3703 11.8559 56.5411 11.6707 56.5765 11.4201C56.6127 11.1695 56.466 10.626 56.1364 9.78979V9.78892Z" fill="white"/>
<path d="M59.5189 9.24297L61.4234 8.889L61.4674 9.12498C61.5502 9.56851 61.6658 9.86995 61.8151 10.0301C61.9644 10.1903 62.1758 10.2454 62.4485 10.1946C62.6676 10.1542 62.8281 10.0525 62.9291 9.89148C63.0301 9.73043 63.0585 9.53062 63.0145 9.29292C62.942 8.90192 62.5615 8.58412 61.8755 8.33953C61.7633 8.29561 61.6779 8.26202 61.6184 8.24135C61.5968 8.23446 61.5606 8.22154 61.5096 8.20173C60.5794 7.8469 59.9884 7.55925 59.7364 7.33878C59.5535 7.17083 59.4016 6.97103 59.2791 6.74108C59.1565 6.51113 59.0685 6.25104 59.0142 5.96166C58.883 5.25631 59.0047 4.66119 59.38 4.17632C59.7554 3.69144 60.3378 3.37537 61.1265 3.22896C61.9842 3.06963 62.6763 3.14542 63.2018 3.45546C63.7273 3.76637 64.0595 4.29517 64.1993 5.04186C64.2053 5.07287 64.2114 5.11765 64.2183 5.17363C64.2252 5.23047 64.2312 5.27439 64.2372 5.3054L62.3734 5.65162L62.3553 5.55171C62.2897 5.19947 62.1792 4.94368 62.0239 4.78435C61.8686 4.62502 61.6762 4.56732 61.4449 4.61038C61.249 4.64655 61.1024 4.73957 61.0074 4.88942C60.9117 5.03928 60.884 5.21841 60.9229 5.42769C60.9867 5.7696 61.3932 6.07018 62.1413 6.32855C62.2776 6.37936 62.3829 6.41725 62.4554 6.44395C62.514 6.46204 62.5977 6.49132 62.7047 6.53266C63.5098 6.81687 64.0414 7.08299 64.2985 7.33102C64.4599 7.49294 64.5962 7.68499 64.7075 7.90805C64.8188 8.13111 64.8999 8.38087 64.9517 8.65647C65.1019 9.46258 64.9871 10.1275 64.6066 10.6494C64.226 11.1713 63.6073 11.5123 62.7488 11.6717C61.8488 11.8387 61.1334 11.7561 60.6036 11.4228C60.0738 11.0895 59.7321 10.5107 59.5785 9.68737C59.569 9.63483 59.5595 9.57971 59.5509 9.52201C59.5422 9.4643 59.5319 9.37129 59.5198 9.24297H59.5189Z" fill="white"/>
<path d="M66.1701 10.8947L66.2176 2.69141L68.3308 2.70346L68.3127 5.80391L70.0091 5.81338L70.0272 2.7138L72.0939 2.72586L72.0464 10.9291L69.9798 10.9171L69.9996 7.51346L68.3032 7.50399L68.2833 10.9076L66.1701 10.8955V10.8947Z" fill="white"/>
<path d="M73.1526 11.0928L74.7628 3.04883L79.5873 4.01083L79.2749 5.57311L76.5119 5.02192L76.2159 6.4998L78.7658 7.00792L78.4431 8.62188L75.8932 8.11375L75.542 9.86895L78.305 10.4201L77.978 12.0548L73.1535 11.0928H73.1526Z" fill="white"/>
<path d="M78.9065 12.3081L81.9922 4.70508L84.196 5.59559C84.9174 5.88755 85.43 6.12956 85.7311 6.32248C86.0331 6.51539 86.2549 6.72726 86.3981 6.95721C86.5655 7.23194 86.6553 7.52304 86.6673 7.8305C86.6794 8.13796 86.613 8.47126 86.4672 8.83039C86.2894 9.2679 86.0564 9.6012 85.7673 9.82942C85.4783 10.0577 85.1176 10.1954 84.6844 10.242C85.1909 10.7303 85.2764 11.4373 84.939 12.3623C84.9338 12.3752 84.9303 12.3838 84.9286 12.3873C84.8932 12.4846 84.8406 12.6241 84.7716 12.8067C84.4385 13.6688 84.3772 14.2682 84.586 14.605L82.295 13.6791C82.308 13.5009 82.3382 13.32 82.3848 13.1383C82.4314 12.9557 82.4944 12.7662 82.5746 12.5681C82.6238 12.4467 82.6877 12.3003 82.7645 12.1306C82.8421 11.961 82.8913 11.8499 82.9129 11.7965C83.101 11.3323 83.1631 10.9878 83.0984 10.7621C83.0337 10.5365 82.8275 10.3539 82.4788 10.2127L82.0759 10.0499L80.8419 13.0909L78.9047 12.3081H78.9065ZM82.6445 8.65298C82.6773 8.6659 82.7187 8.68484 82.7705 8.70982C82.8214 8.73393 82.8602 8.75202 82.8853 8.76235C83.2917 8.92685 83.6092 8.96905 83.8379 8.88895C84.0666 8.80886 84.2521 8.59269 84.3953 8.24045C84.5274 7.9149 84.5369 7.64964 84.4238 7.44466C84.3108 7.23969 84.051 7.05539 83.6446 6.89089C83.6196 6.88056 83.5799 6.86678 83.5255 6.84869C83.4712 6.8306 83.428 6.8151 83.3961 6.80218L82.6445 8.65384V8.65298Z" fill="white"/>
<path d="M37.1605 54.0824L35.9731 40.5343L39.4636 40.2294L39.9563 45.8507L42.0712 40.0012L45.6393 39.6895L42.9203 45.9015L46.9043 53.2306L43.2396 53.5502L40.9779 48.8099L40.3351 50.169L40.6509 53.7758L37.1605 54.0807V54.0824Z" fill="white"/>
<path d="M46.9897 46.3982C46.8465 44.7679 46.8068 43.5717 46.8707 42.8095C46.9336 42.0473 47.0959 41.4427 47.3565 40.994C47.731 40.3584 48.2504 39.8649 48.9166 39.5144C49.5827 39.1639 50.4008 38.946 51.3706 38.8616C52.3466 38.7763 53.1879 38.8495 53.8955 39.0795C54.603 39.3103 55.1959 39.7065 55.6748 40.2671C56.0225 40.6685 56.2943 41.2386 56.4893 41.9775C56.6843 42.7173 56.8535 43.8989 56.9958 45.5232C57.1374 47.1424 57.1771 48.3334 57.1141 49.0991C57.0511 49.8638 56.8828 50.4745 56.6101 50.9292C56.2417 51.5579 55.7265 52.0497 55.0638 52.4028C54.4011 52.7559 53.5848 52.9755 52.6158 53.0599C51.6459 53.1443 50.8029 53.0702 50.0858 52.8377C49.3687 52.6052 48.7708 52.2107 48.2918 51.6561C47.957 51.2599 47.693 50.6924 47.498 49.9526C47.303 49.2136 47.1338 48.0286 46.9906 46.3974L46.9897 46.3982ZM53.5348 47.0588L53.3208 44.6129C53.1888 43.1118 53.0024 42.1928 52.7616 41.8561C52.52 41.5194 52.1248 41.3755 51.576 41.4238C51.0393 41.4703 50.6838 41.6847 50.5086 42.0662C50.3334 42.4478 50.311 43.3805 50.4413 44.8644L50.6553 47.3103C50.7839 48.777 50.9677 49.6864 51.2076 50.0413C51.4474 50.3961 51.8418 50.5485 52.3906 50.5012C52.9333 50.4538 53.2923 50.2393 53.4675 49.8578C53.6426 49.4763 53.6651 48.5436 53.5348 47.0597V47.0588Z" fill="white"/>
<path d="M58.864 47.5601L62.0636 47.281L62.0981 47.6772C62.1637 48.4222 62.3061 48.9389 62.527 49.2266C62.7479 49.5151 63.087 49.6391 63.546 49.5986C63.9145 49.5659 64.1949 49.4255 64.3882 49.1749C64.5815 48.9243 64.66 48.6005 64.6255 48.2008C64.5677 47.5446 63.9922 46.9589 62.8989 46.4456C62.7211 46.3552 62.5856 46.2872 62.4899 46.2424C62.4562 46.2277 62.3984 46.2002 62.3164 46.1597C60.8383 45.4259 59.9098 44.8575 59.5293 44.4527C59.2549 44.1461 59.0348 43.793 58.87 43.3934C58.7043 42.9947 58.6008 42.5511 58.5585 42.0645C58.455 40.8795 58.7509 39.9175 59.4482 39.1768C60.1454 38.4362 61.1567 38.0081 62.4812 37.8927C63.9223 37.767 65.0518 38.0021 65.8698 38.5989C66.687 39.1958 67.1512 40.1216 67.2608 41.3764C67.2651 41.4289 67.2686 41.503 67.2703 41.5969C67.272 41.6916 67.2755 41.7648 67.2798 41.8174L64.1483 42.0912L64.1337 41.9242C64.0819 41.3316 63.9404 40.8924 63.71 40.6047C63.4796 40.318 63.1707 40.1905 62.7824 40.2249C62.4528 40.2534 62.1973 40.3843 62.0153 40.6151C61.8341 40.8468 61.7581 41.1387 61.7892 41.4901C61.8392 42.0645 62.4622 42.6252 63.6565 43.1712C63.8739 43.2763 64.0405 43.3564 64.1561 43.4115C64.251 43.4503 64.383 43.5131 64.5539 43.5984C65.837 44.1952 66.6714 44.7197 67.0563 45.171C67.297 45.463 67.4912 45.8023 67.6387 46.1881C67.7863 46.574 67.8804 46.9986 67.9218 47.4619C68.0409 48.8166 67.744 49.8949 67.033 50.6958C66.322 51.4968 65.2451 51.9601 63.804 52.0859C62.2914 52.2185 61.1248 51.967 60.3041 51.3323C59.4827 50.6976 59.0124 49.6882 58.8907 48.3042C58.883 48.2163 58.8761 48.1233 58.8709 48.0269C58.8657 47.9304 58.8631 47.7754 58.864 47.5618V47.5601Z" fill="white"/>
<path d="M70.1455 51.2022L68.9581 37.6541L72.4485 37.3492L72.8972 42.4693L75.699 42.2247L75.2503 37.1046L78.663 36.8066L79.8504 50.3547L76.4377 50.6527L75.9449 45.0314L73.1431 45.276L73.6358 50.8973L70.1455 51.2022Z" fill="white"/>
<path d="M82.2752 50.143L81.0878 36.5949L89.2128 35.8853L89.4432 38.5155L84.7896 38.922L85.008 41.4118L89.3034 41.0372L89.5416 43.7552L85.2461 44.1299L85.505 47.0856L90.1594 46.6791L90.401 49.4325L82.276 50.1421L82.2752 50.143Z" fill="white"/>
<path d="M92.5617 49.2447L91.3743 35.6966L95.3013 35.3538C96.5879 35.2419 97.5267 35.2143 98.1178 35.272C98.7089 35.3297 99.1973 35.4744 99.5822 35.7069C100.037 35.986 100.389 36.3485 100.64 36.7938C100.89 37.2391 101.044 37.7808 101.1 38.4198C101.168 39.2001 101.076 39.8667 100.821 40.4213C100.567 40.9751 100.138 41.4505 99.5347 41.8458C100.652 42.186 101.311 43.1652 101.512 44.7843C101.513 44.8076 101.515 44.8222 101.515 44.8283C101.537 44.9979 101.564 45.2434 101.6 45.5655C101.759 47.0881 102.121 48.02 102.685 48.361L98.6028 48.7176C98.488 48.4437 98.3957 48.1552 98.3267 47.8512C98.2576 47.5472 98.2076 47.219 98.1765 46.8668C98.1575 46.6498 98.1411 46.3871 98.1265 46.0779C98.1127 45.7687 98.1014 45.5672 98.0928 45.4733C98.0203 44.6465 97.8512 44.091 97.5854 43.8068C97.3197 43.5226 96.8761 43.4081 96.2557 43.4623L95.5386 43.5252L96.0141 48.9441L92.5625 49.2455L92.5617 49.2447ZM95.3203 41.0345C95.3782 41.0294 95.455 41.0259 95.549 41.0233C95.6431 41.0207 95.7129 41.0182 95.7578 41.0139C96.4818 40.951 96.9823 40.7736 97.2601 40.4833C97.5371 40.1931 97.6484 39.7341 97.5941 39.1071C97.5431 38.5266 97.3568 38.1279 97.0349 37.91C96.713 37.6929 96.1901 37.6163 95.4662 37.6791C95.4204 37.6835 95.3514 37.6921 95.2582 37.7058C95.165 37.7196 95.0891 37.7291 95.0313 37.7343L95.3203 41.0337V41.0345Z" fill="white"/>
</g>
<defs>
<clipPath id="clip0_3716_600">
<rect width="139" height="89" fill="white"/>
</clipPath>
</defs>
</svg>
