<svg width="93" height="93" viewBox="0 0 93 93" fill="none" xmlns="http://www.w3.org/2000/svg">
<g clip-path="url(#clip0_3716_583)">
<path d="M4.65002 57.1616C4.65002 75.8528 23.3777 91.0063 46.4879 91.0063C69.5981 91.0063 88.3257 75.8528 88.3257 57.1616H4.65002Z" fill="#EA3F37"/>
<path d="M93 46.5C93 72.1814 72.1814 93 46.5 93C20.8186 93 0 72.1814 0 46.5C0 20.8186 20.8186 0 46.5 0C72.1814 0 93 20.8186 93 46.5ZM46.5 4.65C23.3898 4.65 4.65 23.3898 4.65 46.5C4.65 69.6102 23.3837 88.35 46.5 88.35C69.6163 88.35 88.35 69.6102 88.35 46.5C88.35 23.3898 69.6102 4.65 46.5 4.65Z" fill="#EA3F37"/>
<path d="M30.9393 62.3647L27.7359 79.1898H25.2194L22.0161 62.3647H24.5326L26.4169 73.8834C26.4291 74.2116 26.4534 74.6918 26.4838 75.324C26.4777 74.9957 26.4959 74.5155 26.5445 73.8834L28.4228 62.3647H30.9393Z" fill="white"/>
<path d="M39.3032 79.1534H32.3191V62.3647H39.2242V64.5773H34.8356V69.4583H38.6528V71.6344H34.8356V76.9348H39.2971V79.1473L39.3032 79.1534Z" fill="white"/>
<path d="M49.3204 77.8222C49.3143 78.7036 48.8706 79.1473 47.9892 79.1534H42.3363C41.4549 79.1534 41.0112 78.7036 41.0051 77.8222V63.6959C41.0112 62.8146 41.4671 62.3708 42.3667 62.3647H47.9892C48.8706 62.3708 49.3143 62.8146 49.3204 63.6959V67.4767H46.804V64.5408H43.5216V76.9773H46.804V72.2847H44.9379V70.1512H49.3265V77.8222H49.3204Z" fill="white"/>
<path d="M59.8239 79.1532H57.3439L56.8333 75.9864H53.6847L53.1802 79.1532H50.7002V79.1107L53.94 62.3281H56.578L59.8178 79.1532H59.8239ZM56.4808 73.8103L55.2469 66.2244L54.019 73.8103H56.4808Z" fill="white"/>
<path d="M69.7378 79.1534H67.5435L63.5135 68.5891C63.6229 69.1057 63.6716 69.5069 63.6716 69.7987V79.1534H61.228V62.3647H63.4223L67.4523 72.7163C67.3429 72.1997 67.2943 71.7985 67.2943 71.5067V62.3647H69.7378V79.1534Z" fill="white"/>
<path fill-rule="evenodd" clip-rule="evenodd" d="M44.6035 53.9702C51.9645 50.1165 59.7327 50.2502 64.8811 42.2024C69.4521 35.0299 68.8443 26.1493 74.7768 18.6606C68.8686 27.2252 60.298 21.6999 52.0921 24.4655C42.4335 27.7418 40.9443 38.5979 41.1874 48.1167C42.6098 38.3608 51.618 31.7232 60.9849 30.1124C51.0041 35.3763 44.1598 45.1444 43.0535 55.885L44.6035 53.9702Z" fill="#EA3F37"/>
<path fill-rule="evenodd" clip-rule="evenodd" d="M37.7713 53.0158C32.5621 50.6634 27.2313 51.0707 23.3715 45.746C19.9494 41.0048 20.0041 34.8777 15.6337 29.9785C20.0345 35.6254 25.6995 31.486 31.4437 33.0542C38.209 34.9142 39.6678 42.3117 39.8805 48.8581C38.5129 42.2144 32.0576 38.0142 25.5597 37.2848C32.629 40.5003 37.7166 46.9313 38.908 54.2618L37.7713 53.0097V53.0158Z" fill="#EA3F37"/>
</g>
<defs>
<clipPath id="clip0_3716_583">
<rect width="93" height="93" fill="white"/>
</clipPath>
</defs>
</svg>
