<svg width="48" height="48" viewBox="0 0 48 48" fill="none" xmlns="http://www.w3.org/2000/svg">
<path d="M46.4498 21.5244H36.0498C36.0498 24.707 34.7856 27.7592 32.5352 30.0096C30.2846 32.26 27.2324 33.5244 24.0498 33.5244C20.8672 33.5244 17.815 32.26 15.5645 30.0096C13.3141 27.7592 12.0498 24.707 12.0498 21.5244H1.5498" stroke="#00031E" stroke-width="2" stroke-linecap="round" stroke-linejoin="round"/>
<path d="M16.5498 20.0242C16.5498 22.0132 17.34 23.921 18.7465 25.3274C20.153 26.734 22.0608 27.5242 24.0498 27.5242C26.039 27.5242 27.9466 26.734 29.3532 25.3274C30.7596 23.921 31.5498 22.0132 31.5498 20.0242C31.5498 14.7141 25.6758 12.9281 27.4438 4.27014C27.5062 3.96692 27.4732 3.65186 27.3496 3.36806C27.226 3.08426 27.0178 2.84558 26.7534 2.68468C26.4888 2.52376 26.1812 2.4485 25.8722 2.46918C25.5634 2.48984 25.2686 2.60544 25.0278 2.80014C22.5334 4.95712 20.4976 7.59318 19.0412 10.5519C17.5848 13.5106 16.7376 16.7318 16.5498 20.0242Z" stroke="#00031E" stroke-width="2" stroke-linecap="round" stroke-linejoin="round"/>
<path d="M3.0498 44.7744C2.6356 44.7744 2.2998 44.4386 2.2998 44.0244C2.2998 43.6102 2.6356 43.2744 3.0498 43.2744" stroke="#00031E" stroke-width="2"/>
<path d="M3.0498 44.7744C3.46402 44.7744 3.7998 44.4386 3.7998 44.0244C3.7998 43.6102 3.46402 43.2744 3.0498 43.2744" stroke="#00031E" stroke-width="2"/>
<path d="M16.5498 44.7744C16.1356 44.7744 15.7998 44.4386 15.7998 44.0244C15.7998 43.6102 16.1356 43.2744 16.5498 43.2744" stroke="#00031E" stroke-width="2"/>
<path d="M16.5498 44.7744C16.964 44.7744 17.2998 44.4386 17.2998 44.0244C17.2998 43.6102 16.964 43.2744 16.5498 43.2744" stroke="#00031E" stroke-width="2"/>
<path d="M31.5497 44.7744C31.1355 44.7744 30.7997 44.4386 30.7997 44.0244C30.7997 43.6102 31.1355 43.2744 31.5497 43.2744" stroke="#00031E" stroke-width="2"/>
<path d="M31.5497 44.7744C31.9639 44.7744 32.2997 44.4386 32.2997 44.0244C32.2997 43.6102 31.9639 43.2744 31.5497 43.2744" stroke="#00031E" stroke-width="2"/>
<path d="M45.0497 44.7744C44.6355 44.7744 44.2997 44.4386 44.2997 44.0244C44.2997 43.6102 44.6355 43.2744 45.0497 43.2744" stroke="#00031E" stroke-width="2"/>
<path d="M45.0497 44.7744C45.4639 44.7744 45.7997 44.4386 45.7997 44.0244C45.7997 43.6102 45.4639 43.2744 45.0497 43.2744" stroke="#00031E" stroke-width="2"/>
<path d="M45.0497 29.7744C44.6355 29.7744 44.2997 29.4386 44.2997 29.0244C44.2997 28.6102 44.6355 28.2744 45.0497 28.2744" stroke="#00031E" stroke-width="2"/>
<path d="M45.0497 29.7744C45.4639 29.7744 45.7997 29.4386 45.7997 29.0244C45.7997 28.6102 45.4639 28.2744 45.0497 28.2744" stroke="#00031E" stroke-width="2"/>
<path d="M39.0497 37.2744C38.6355 37.2744 38.2997 36.9386 38.2997 36.5244C38.2997 36.1102 38.6355 35.7744 39.0497 35.7744" stroke="#00031E" stroke-width="2"/>
<path d="M39.0497 37.2744C39.4639 37.2744 39.7997 36.9386 39.7997 36.5244C39.7997 36.1102 39.4639 35.7744 39.0497 35.7744" stroke="#00031E" stroke-width="2"/>
<path d="M9.0498 37.2744C8.6356 37.2744 8.2998 36.9386 8.2998 36.5244C8.2998 36.1102 8.6356 35.7744 9.0498 35.7744" stroke="#00031E" stroke-width="2"/>
<path d="M9.0498 37.2744C9.46402 37.2744 9.7998 36.9386 9.7998 36.5244C9.7998 36.1102 9.46402 35.7744 9.0498 35.7744" stroke="#00031E" stroke-width="2"/>
<path d="M3.0498 29.7744C2.6356 29.7744 2.2998 29.4386 2.2998 29.0244C2.2998 28.6102 2.6356 28.2744 3.0498 28.2744" stroke="#00031E" stroke-width="2"/>
<path d="M3.0498 29.7744C3.46402 29.7744 3.7998 29.4386 3.7998 29.0244C3.7998 28.6102 3.46402 28.2744 3.0498 28.2744" stroke="#00031E" stroke-width="2"/>
</svg>
