<svg width="44" height="48" viewBox="0 0 44 48" fill="none" xmlns="http://www.w3.org/2000/svg">
<path d="M8.13809 1.52148L14.221 4.88978C16.6844 8.9618 4.66935 28.4674 8.13809 30.3776L2.05521 27.0094C-1.41353 25.099 9.94653 4.88978 8.13809 1.52148Z" stroke="#00031E" stroke-width="2" stroke-linecap="round" stroke-linejoin="round"/>
<path d="M36.1892 17.6221L42.272 20.9904C44.7354 25.0624 32.7204 44.5678 36.1892 46.4782L30.1062 43.11C26.6376 41.1996 37.9976 20.9904 36.1892 17.6221Z" stroke="#00031E" stroke-width="2" stroke-linecap="round" stroke-linejoin="round"/>
<path d="M9.71692 21.2669C13.2343 17.7611 20.7296 8.51761 22.1568 9.56685" stroke="#00031E" stroke-width="2" stroke-linecap="round" stroke-linejoin="round"/>
<path d="M8.13953 30.357C9.24617 31.187 16.0044 26.3654 20.1146 18.6191" stroke="#00031E" stroke-width="2" stroke-linecap="round" stroke-linejoin="round"/>
<path d="M23.7343 29.3342C27.2515 25.8284 34.7469 16.585 36.1741 17.6342" stroke="#00031E" stroke-width="2" stroke-linecap="round" stroke-linejoin="round"/>
<path d="M22.1567 38.4233C23.2633 39.2533 30.0215 34.4317 34.1317 26.6855" stroke="#00031E" stroke-width="2" stroke-linecap="round" stroke-linejoin="round"/>
<path d="M22.1636 9.57129L28.2464 12.9396C30.7098 17.0116 18.6948 36.5172 22.1636 38.4274L16.0807 35.0592C12.612 33.1488 23.972 12.9396 22.1636 9.57129Z" stroke="#00031E" stroke-width="2" stroke-linecap="round" stroke-linejoin="round"/>
</svg>
