<svg width="29" height="46" viewBox="0 0 29 46" fill="none" xmlns="http://www.w3.org/2000/svg">
<path d="M28 31.2943C28 34.8747 26.5777 38.3085 24.0459 40.8402C21.5142 43.3719 18.0804 44.7943 14.5 44.7943C10.9196 44.7943 7.4858 43.3719 4.95406 40.8402C2.42232 38.3085 1 34.8747 1 31.2943C1 21.5543 9.896 6.87026 13.244 1.69426C13.3787 1.48324 13.5643 1.30956 13.7839 1.18924C14.0034 1.06893 14.2497 1.00586 14.5 1.00586C14.7503 1.00586 14.9966 1.06893 15.2161 1.18924C15.4357 1.30956 15.6213 1.48324 15.756 1.69426C19.104 6.87026 28 21.5543 28 31.2943Z" stroke="#00031E" stroke-width="2" stroke-linecap="round" stroke-linejoin="round"/>
<path d="M14.5 38.7999C13.5146 38.7999 12.5388 38.6058 11.6285 38.2285C10.7182 37.8512 9.8911 37.2982 9.19458 36.6011C8.49806 35.9041 7.94574 35.0766 7.56918 34.1659C7.19263 33.2553 6.99921 32.2794 7 31.2939" stroke="#00031E" stroke-width="2" stroke-linecap="round" stroke-linejoin="round"/>
</svg>
