<svg width="48" height="48" viewBox="0 0 48 48" fill="none" xmlns="http://www.w3.org/2000/svg">
<path d="M13.5 46.5C20.1274 46.5 25.5 41.1274 25.5 34.5C25.5 27.8726 20.1274 22.5 13.5 22.5C6.87258 22.5 1.5 27.8726 1.5 34.5C1.5 41.1274 6.87258 46.5 13.5 46.5Z" stroke="#00031E" stroke-width="2" stroke-linecap="round" stroke-linejoin="round"/>
<path d="M7.5 34.5C7.5 32.9087 8.13214 31.3826 9.25736 30.2574C10.3826 29.1321 11.9087 28.5 13.5 28.5" stroke="#00031E" stroke-width="2" stroke-linecap="round" stroke-linejoin="round"/>
<path d="M37.5 25.5C42.4706 25.5 46.5 21.4706 46.5 16.5C46.5 11.5294 42.4706 7.5 37.5 7.5C32.5294 7.5 28.5 11.5294 28.5 16.5C28.5 21.4706 32.5294 25.5 37.5 25.5Z" stroke="#00031E" stroke-width="2" stroke-linecap="round" stroke-linejoin="round"/>
<path d="M34.5 16.5C34.5 15.7044 34.8161 14.9413 35.3787 14.3787C35.9413 13.8161 36.7044 13.5 37.5 13.5" stroke="#00031E" stroke-width="2" stroke-linecap="round" stroke-linejoin="round"/>
<path d="M12 10.5C14.4853 10.5 16.5 8.48528 16.5 6C16.5 3.51472 14.4853 1.5 12 1.5C9.51472 1.5 7.5 3.51472 7.5 6C7.5 8.48528 9.51472 10.5 12 10.5Z" stroke="#00031E" stroke-width="2" stroke-linecap="round" stroke-linejoin="round"/>
<path d="M29.276 12.8401L16.298 7.32812M23.922 28.5481L30.794 22.5001L23.922 28.5481Z" stroke="#00031E" stroke-width="2" stroke-linecap="round" stroke-linejoin="round"/>
</svg>
