<svg width="48" height="48" viewBox="0 0 48 48" fill="none" xmlns="http://www.w3.org/2000/svg">
<path d="M10.5 46.5V43.5C10.5 42.7044 10.8161 41.9413 11.3787 41.3787C11.9413 40.8161 12.7044 40.5 13.5 40.5C15 40.5 15 46.5 28.5 46.5C42 46.5 46.5 34.5 46.5 28.5C46.5 15 37.5 7.5 25.5 7.5C24.7044 7.5 23.9413 7.18393 23.3787 6.62132C22.8161 6.05871 22.5 5.29565 22.5 4.5V1.5" stroke="#00031E" stroke-width="2" stroke-linecap="round" stroke-linejoin="round"/>
<path d="M1.5 46.5003V43.5003C1.62248 40.3568 2.92608 37.3752 5.15052 35.1508C7.37496 32.9263 10.3566 31.6227 13.5 31.5003C16.512 31.5003 25.578 23.9363 20.942 13.3643" stroke="#00031E" stroke-width="2" stroke-linecap="round" stroke-linejoin="round"/>
<path d="M13.5 1.5V4.5C13.5026 6.88614 14.4517 9.17378 16.139 10.861C17.8262 12.5483 20.1139 13.4974 22.5 13.5H25.5" stroke="#00031E" stroke-width="2" stroke-linecap="round" stroke-linejoin="round"/>
</svg>
