<svg width="48" height="48" viewBox="0 0 48 48" fill="none" xmlns="http://www.w3.org/2000/svg">
<g clip-path="url(#clip0_3713_1104)">
<path d="M46.5 36V22.5H33" stroke="#00031E" stroke-width="2" stroke-linecap="round" stroke-linejoin="round"/>
<path d="M46.5 22.5L30.622 38.378C30.3434 38.6568 30.0126 38.8779 29.6485 39.0288C29.2844 39.1797 28.8941 39.2574 28.5 39.2574C28.1059 39.2574 27.7156 39.1797 27.3515 39.0288C26.9874 38.8779 26.6566 38.6568 26.378 38.378L20.122 32.122C19.8434 31.8432 19.5126 31.6221 19.1485 31.4712C18.7844 31.3203 18.3941 31.2426 18 31.2426C17.6059 31.2426 17.2156 31.3203 16.8515 31.4712C16.4874 31.6221 16.1566 31.8432 15.878 32.122L1.5 46.5" stroke="#00031E" stroke-width="2" stroke-linecap="round" stroke-linejoin="round"/>
<path d="M13.5 22.4996L3.27199 11.8296C2.37371 10.9318 1.78093 9.77406 1.57774 8.52045C1.37455 7.26684 1.57127 5.98108 2.13999 4.84558V4.84558C2.56871 3.98805 3.19508 3.24468 3.96749 2.67675C4.7399 2.10881 5.63622 1.73258 6.58257 1.57905C7.52893 1.42553 8.49822 1.4991 9.41056 1.79372C10.3229 2.08834 11.1522 2.59556 11.83 3.27358L13.5 4.94358L15.17 3.27358C15.848 2.59557 16.6774 2.08836 17.5899 1.79375C18.5024 1.49915 19.4718 1.42557 20.4183 1.57909C21.3648 1.73261 22.2613 2.10882 23.0339 2.67674C23.8064 3.24466 24.433 3.98802 24.862 4.84558V4.84558C25.4298 5.98143 25.6259 7.26716 25.4224 8.52063C25.2188 9.77411 24.6261 10.9318 23.728 11.8296L13.5 22.4996Z" stroke="#00031E" stroke-width="2" stroke-linecap="round" stroke-linejoin="round"/>
</g>
<defs>
<clipPath id="clip0_3713_1104">
<rect width="48" height="48" fill="white"/>
</clipPath>
</defs>
</svg>
