<svg width="260" height="334" viewBox="0 0 260 334" fill="none" xmlns="http://www.w3.org/2000/svg">
<path d="M204.826 237.721C204.842 237.625 204.878 237.533 204.932 237.452C204.986 237.371 205.057 237.303 205.14 237.252C206.506 227.709 208.64 215.463 210.934 205.258C207.493 209.324 203.429 212.818 198.894 215.611C185.288 224.711 169.783 231.088 154.537 236.856C146.109 240.043 137.588 243.055 128.955 245.652C128.791 249.07 125.261 322.067 124.809 331.565C149.21 327.498 183.377 312.598 205.82 300.852C201.127 287.05 201.951 266.272 203.37 251.751C200.549 261.453 194.02 270.535 196.645 280.823C196.691 281.016 196.659 281.219 196.559 281.389C196.458 281.559 196.295 281.683 196.104 281.736C195.913 281.788 195.71 281.765 195.536 281.671C195.362 281.576 195.231 281.418 195.172 281.229C192.057 269.042 201.297 258.829 202.835 247.211C197.427 256.514 187.857 263.414 183.646 273.556C183.27 274.46 181.786 274.063 182.173 273.151C187.613 260.014 202.035 252.15 204.826 237.721ZM127.413 245.626C101.984 237.261 75.5628 224.578 56.3128 206.161C52.9311 203.085 49.8586 199.686 47.1393 196.011C42.1599 225.073 41.8055 254.74 46.0892 283.912C46.063 284.358 40.4893 280.864 123.287 331.145C123.443 327.989 126.951 255.242 127.413 245.626Z" fill="#FBECDD"/>
<path d="M249.978 40.5275L227.603 44.7467C234.898 76.2345 228.607 96.4452 220.363 108.846C217.358 113.347 212.858 116.642 207.659 118.147C202.46 119.652 196.897 119.271 191.952 117.071C182.12 112.696 173.139 113.018 164.527 117.708C157.352 113.828 126.727 93.6085 139.812 37.1482L117.445 32.929C117.445 32.929 84.4755 102.894 142.539 140.801C136.26 151.298 131.109 162.43 127.172 174.01C131.402 175.319 188.529 192.933 212.868 200.435C213.055 200.501 213.212 200.633 213.308 200.806C213.405 200.979 213.435 201.181 213.393 201.375C212.969 203.125 212.579 204.875 212.201 206.625C219.231 204.305 225.719 200.586 231.274 195.692C236.829 190.799 241.336 184.832 244.525 178.151C239.079 167.564 232.792 157.43 225.725 147.848C282.626 109.812 249.978 40.5275 249.978 40.5275Z" fill="#EA3F37"/>
<path d="M207.686 137.425C207.64 137.265 207.543 137.124 207.41 137.023C207.278 136.922 207.116 136.866 206.949 136.863C180.804 136.863 189.824 136.881 187.874 136.881C187.717 136.873 187.563 136.925 187.442 137.026C187.321 137.127 187.242 137.269 187.221 137.425C186.834 139.472 186.556 141.538 186.39 143.615C186.263 143.755 186.188 143.935 186.176 144.124C186.165 144.314 186.218 144.501 186.327 144.656C186.07 149.612 186.677 154.806 189.551 158.345C192.5 161.965 197.851 161.965 201.711 159.829C208.589 156.04 209.194 145.015 207.686 137.425ZM188.599 138.393H206.314C206.616 140.057 206.804 141.741 206.876 143.431C206.662 143.387 187.878 143.403 188.056 143.403C188.135 141.725 188.316 140.054 188.599 138.398V138.393ZM203.062 156.868C200.042 159.991 193.962 161.141 190.856 157.54C188.093 154.337 187.904 149.192 188 144.94C208.195 144.94 206.725 144.961 206.9 144.903C206.895 149.35 205.938 153.893 203.062 156.868ZM214.964 46.2955C207.149 40.1268 196.136 42.519 193.36 51.206C177.477 48.8383 163.611 58.8955 161.782 72.1343C152.838 83.8698 155.975 101.312 169.252 107.859C168.176 113.728 167.411 120.333 169.116 125.814C171.512 133.514 179.847 129.627 183.265 125.021C186.996 120 188.324 113.58 188.655 107.427C192.713 105.211 196.065 101.897 198.327 97.8645C211.214 93.5928 218.951 81.0313 215.01 68.552C223.067 63.8813 222.799 52.48 214.964 46.2955ZM181.45 124.874C179.425 127.298 174.882 130.623 171.851 127.739C168.848 124.893 169.769 118.058 170.073 114.409C170.229 112.447 170.469 110.486 170.773 108.541C173.376 109.583 176.161 110.09 178.964 110.033C181.766 109.976 184.529 109.355 187.087 108.209C186.654 114.096 185.267 120.298 181.45 124.874ZM199.561 93.7013C199.459 93.6442 199.346 93.6109 199.229 93.6038C199.113 93.5967 198.996 93.616 198.888 93.6602C198.78 93.7044 198.683 93.7725 198.605 93.8593C198.527 93.9461 198.47 94.0494 198.437 94.1615C196.988 98.0949 194.445 101.532 191.107 104.068C187.769 106.605 183.776 108.134 179.598 108.477C175.575 108.644 171.594 107.611 168.16 105.508C164.726 103.405 161.996 100.327 160.317 96.6675C153.067 81.2273 166.442 61.0813 184.001 65.0695C188.486 66.2136 192.471 68.7962 195.347 72.4215C198.224 76.0469 199.832 80.5152 199.926 85.142C199.929 85.2589 199.958 85.3737 200.011 85.4779C200.064 85.5821 200.14 85.673 200.233 85.7438C200.326 85.8146 200.433 85.8636 200.548 85.8869C200.663 85.9103 200.781 85.9075 200.894 85.8788L203.115 85.7965C208.948 87.7863 205.115 97.0158 199.552 93.7013H199.561Z" fill="#1E1E1E"/>
<path d="M187.613 85.4097C187.798 85.3014 187.947 85.1407 188.04 84.9479C188.134 84.7551 188.168 84.539 188.139 84.3267C188.109 84.1145 188.018 83.9157 187.875 83.7556C187.733 83.5954 187.547 83.4811 187.339 83.427C187.132 83.3729 186.913 83.3815 186.711 83.4517C186.508 83.5219 186.331 83.6506 186.202 83.8214C186.073 83.9922 185.997 84.1976 185.984 84.4115C185.972 84.6253 186.023 84.8381 186.131 85.023C186.276 85.2708 186.514 85.4508 186.792 85.5233C187.07 85.5958 187.366 85.555 187.613 85.4097ZM188.858 78.9155C187.843 78.849 187.843 80.4345 188.847 80.4905C189.378 80.5213 189.889 80.6996 190.324 81.0054C190.759 81.3112 191.099 81.7323 191.308 82.2212C191.703 83.161 193.241 82.7567 192.846 81.817C192.527 81.0037 191.982 80.2986 191.275 79.7846C190.568 79.2705 189.73 78.969 188.858 78.9155ZM168.341 79.7992C168.246 79.9906 168.21 80.2057 168.238 80.4175C168.265 80.6292 168.355 80.8281 168.495 80.9889C168.636 81.1497 168.821 81.2652 169.027 81.3208C169.233 81.3764 169.451 81.3697 169.653 81.3015C169.856 81.2332 170.033 81.1065 170.164 80.9373C170.294 80.7682 170.371 80.5642 170.386 80.3511C170.4 80.1381 170.351 79.9256 170.245 79.7404C170.138 79.5553 169.979 79.4058 169.788 79.311C169.531 79.1861 169.235 79.1673 168.964 79.2587C168.694 79.35 168.47 79.5442 168.341 79.7992ZM168.608 75.9755C169.07 75.7097 169.596 75.5776 170.128 75.594C170.661 75.6104 171.178 75.7746 171.622 76.0682C172.469 76.63 173.528 75.4505 172.672 74.8887C171.959 74.3796 171.114 74.0862 170.239 74.0437C169.364 74.0012 168.494 74.2113 167.735 74.649C166.858 75.1477 167.733 76.483 168.608 75.9755ZM189.325 89.72C187.738 89.195 186.278 90.721 180.13 90.476C175.244 90.301 169.44 88.4845 166.535 85.1612C165.88 84.414 164.802 85.5007 165.448 86.248C169.483 90.875 177.222 92.422 183.457 91.9495C184.887 91.6265 186.341 91.4263 187.804 91.351C189.26 91.5347 188.837 92.1892 188.32 93.0467C185.09 98.3877 179.289 99.6495 173.167 98.8777C172.191 98.757 172.199 100.278 173.167 100.407C178.086 101.034 183.198 100.407 187.022 96.9895C188.294 95.8467 192.8 90.875 189.325 89.72ZM139.8 16.227C139.21 16.514 137.689 18.096 137.311 18.005C136.151 17.7197 137.311 13.4445 137.413 12.5975C137.726 10.0722 138.841 3.41347 135.432 2.34422C130.983 0.944222 131.997 8.48847 130.625 11.1327C129.685 8.13847 130.735 -1.05603 126.183 1.06322C123.348 2.38097 124.433 9.06772 124.165 11.649C123.623 9.21647 122.646 5.60447 120.002 6.56347C116.982 7.66947 118.39 13.546 118.658 15.7842C119.302 21.3212 119.274 27.189 124.027 31.0092C130.39 36.1105 139.842 31.613 142.95 23.9707C143.985 21.8829 144.231 19.4913 143.641 17.2367C142.934 15.5445 141.307 15.4937 139.8 16.227ZM142.075 21.75C140.108 29.5077 130.514 34.875 124.543 29.4237C121.015 26.209 120.73 21.603 120.335 17.1632C119.959 14.8453 119.771 12.5009 119.773 10.1527C119.986 7.36147 121.288 7.43672 122.158 10.0967C122.536 11.2115 122.711 12.3805 123.005 13.5145C123.217 14.3387 125.072 14.3282 125.336 13.5145C126.127 11.1082 124.764 4.49322 126.479 2.79222C128.486 0.811223 128.458 7.24072 128.486 8.10697C128.392 8.97373 128.473 9.85052 128.723 10.6857C128.973 11.5209 129.387 12.2977 129.942 12.9702C130.063 13.0884 130.22 13.164 130.388 13.1858C130.555 13.2076 130.726 13.1743 130.873 13.091C131.954 12.1873 132.633 10.8924 132.761 9.48947C132.991 8.22597 132.761 4.47747 134.179 3.87022C137.164 2.58922 135.801 12.8967 135.579 14.316C135.203 16.6102 135.736 21.4735 138.804 18.894C139.707 18.1292 141.567 16.3145 142.35 18.222C142.581 19.4011 142.486 20.6209 142.075 21.75ZM248.578 14.1445C245.936 13.1872 244.957 16.7887 244.415 19.2195C244.165 16.6925 245.251 9.98122 242.397 8.64422C237.847 6.52497 238.897 15.7282 237.957 18.7225C236.575 16.0782 237.597 8.52347 233.148 9.92347C229.739 10.9927 230.854 17.662 231.167 20.1767C231.278 21.0255 232.429 25.3077 231.269 25.5842C230.928 25.6682 229.344 24.0827 228.782 23.8062C227.281 23.0695 225.658 23.1255 224.941 24.8107C224.342 27.0645 224.587 29.4597 225.632 31.5447C228.737 39.1817 238.222 43.688 244.553 38.5832C249.306 34.7507 249.278 28.911 249.924 23.3582C250.19 21.1375 251.6 15.24 248.578 14.1445ZM248.247 24.767C247.847 29.1875 247.556 33.8407 244.037 37.0275C238.12 42.3772 228.77 37.2777 226.598 29.723C226.185 28.5988 226.047 27.3923 226.194 26.2037C226.728 24.067 228.653 25.5317 229.767 26.5082C232.807 29.1332 233.36 24.1772 232.991 21.9285C232.762 20.5477 231.435 10.165 234.382 11.4827C236.536 12.4505 234.459 18.2447 237.69 20.7035C237.837 20.7867 238.007 20.8201 238.175 20.7987C238.343 20.7772 238.499 20.7021 238.621 20.5845C239.155 19.9524 239.557 19.2204 239.806 18.4311C240.054 17.6419 240.142 16.8111 240.066 15.9872C240.113 15.0842 240.077 8.40622 242.093 10.396C244.177 12.4627 241.716 21.7412 243.972 21.68C244.257 21.6712 244.544 21.6712 244.83 21.68C245.834 21.708 245.589 20.308 246.34 17.949C246.506 17.424 246.672 16.43 247.133 16.0975C248.725 14.946 248.753 16.9182 248.809 17.7565C248.81 20.1046 248.622 22.4489 248.247 24.767ZM252.972 217.851C246.571 211.807 239.965 218.074 238.048 220.2C237.273 219.209 236.396 218.301 235.432 217.491C238.664 207.836 239.829 197.609 238.85 187.475C238.452 187.808 238.13 188.221 237.904 188.688C237.679 189.156 237.556 189.665 237.543 190.184C238.418 204.656 234.764 220.375 226.36 232.033C225.779 232.835 227.114 233.608 227.685 232.809C230.704 228.568 233.133 223.938 234.907 219.045C242.287 225.595 244.357 237.579 243.89 246.765C243.493 254.603 241.669 262.865 234.872 267.63C225.025 274.532 208.811 271.407 203.946 264.571C206.137 228.346 213.715 201.788 213.356 200.906C213.181 200.353 219.015 202.332 125.081 173.363C123.699 172.718 122.135 172.578 120.66 172.966C107.976 176.45 58.5895 189.965 46.5845 193.25C46.4218 193.272 46.272 193.35 46.1613 193.472C46.0507 193.593 45.9861 193.749 45.979 193.913C40.8483 223.075 40.2821 252.858 44.3007 282.194C44.5492 283.944 44.4127 285.022 45.923 285.951C64.844 297.578 116.7 328.945 123.609 333.145C123.695 333.201 123.793 333.237 123.894 333.25C123.996 333.263 124.1 333.252 124.197 333.218C149.035 329.316 186.198 312.894 207.147 301.893C209.081 300.863 202.401 295.672 203.822 266.787C210.53 273.774 229.298 276.651 238.958 265.996L242.863 267.662C255.081 264.713 260.573 225.026 252.972 217.851ZM118.551 175.127C119.766 174.794 120.991 174.36 122.235 174.121C122.359 174.08 192.307 195.703 192.431 195.742C192.247 195.752 192.074 195.833 191.95 195.97C191.826 196.106 191.76 196.286 191.768 196.47C191.789 202.125 192.217 207.771 193.049 213.364C193.196 214.341 194.669 213.928 194.522 212.96C193.714 207.501 193.304 201.989 193.297 196.47C193.3 196.372 193.281 196.275 193.244 196.184C193.206 196.094 193.15 196.012 193.079 195.945C199.222 197.842 205.37 199.737 211.52 201.629C208.615 206.133 204.768 209.954 200.245 212.829L199.895 199.084C199.886 198.888 199.801 198.703 199.659 198.568C199.517 198.432 199.328 198.356 199.131 198.356C198.935 198.356 198.746 198.432 198.603 198.568C198.461 198.703 198.377 198.888 198.367 199.084L198.717 212.909C198.715 213.053 198.758 213.194 198.839 213.312C198.919 213.431 199.035 213.522 199.169 213.573C199.095 213.629 199.011 213.683 198.938 213.739C180.773 226.18 147.904 238.361 128.217 244.285C100.88 235.344 68.5592 219.594 50.3417 197.56C49.514 196.556 48.6845 195.534 47.9477 194.456L118.551 175.127ZM123.276 331.152C99.9105 316.952 46.3115 284.355 46.1347 284.297C46.0949 284.175 46.076 284.047 46.0787 283.919C41.8547 254.743 42.2089 225.086 47.1287 196.018C49.8538 199.688 52.9258 203.087 56.3022 206.168C75.526 224.561 101.923 237.252 127.403 245.633C126.043 274.139 124.671 302.645 123.285 331.15L123.276 331.152ZM205.812 300.852C183.492 312.526 149.248 327.489 124.801 331.565C125.263 322.067 128.78 249.07 128.946 245.652C137.579 243.055 146.109 240.052 154.528 236.856C169.776 231.081 185.279 224.704 198.885 215.611C203.42 212.818 207.484 209.324 210.925 205.258C208.633 215.456 206.578 227.308 205.131 237.252C205.047 237.301 204.975 237.369 204.92 237.45C204.866 237.532 204.831 237.624 204.818 237.721C202.117 252.165 187.594 260.014 182.141 273.151C181.763 274.063 183.247 274.46 183.615 273.556C187.825 263.406 197.398 256.514 202.803 247.211C201.256 258.826 192.027 269.042 195.14 281.229C195.201 281.417 195.331 281.573 195.505 281.667C195.678 281.761 195.88 281.784 196.07 281.732C196.26 281.68 196.422 281.556 196.524 281.387C196.625 281.219 196.657 281.017 196.614 280.825C193.989 270.535 200.52 261.451 203.339 251.751C201.925 266.33 201.108 287.05 205.82 300.852H205.812Z" fill="#1E1E1E"/>
<path d="M181.718 213.429V198.293C181.718 198.091 181.637 197.896 181.494 197.753C181.35 197.609 181.156 197.529 180.953 197.529C180.75 197.529 180.556 197.609 180.412 197.753C180.269 197.896 180.188 198.091 180.188 198.293V213.429C180.188 213.632 180.269 213.827 180.412 213.97C180.556 214.113 180.75 214.194 180.953 214.194C181.156 214.194 181.35 214.113 181.494 213.97C181.637 213.827 181.718 213.632 181.718 213.429ZM51.6 164.846C50.0705 166.234 48.9245 167.993 48.2725 169.954C47.6205 171.914 47.4846 174.009 47.8777 176.037C48.0527 177.005 49.5367 176.6 49.3512 175.633C49.025 173.866 49.1596 172.046 49.742 170.347C50.3244 168.648 51.335 167.127 52.6762 165.932C53.4217 165.269 52.3332 164.182 51.6 164.846ZM46.889 158.995C43.6236 160.823 41.0559 163.681 39.5876 167.123C38.1194 170.565 37.8333 174.396 38.7742 178.018C38.8339 178.207 38.9644 178.365 39.1382 178.459C39.3121 178.554 39.5157 178.577 39.7065 178.524C39.8972 178.472 40.0601 178.347 40.161 178.177C40.262 178.007 40.2931 177.805 40.2477 177.612C39.3904 174.316 39.6538 170.828 40.9965 167.697C42.3392 164.567 44.6849 161.973 47.6642 160.322C48.5287 159.842 47.75 158.518 46.889 158.995ZM70.8325 160.717C70.6571 160.623 70.452 160.601 70.2604 160.655C70.0688 160.709 69.9057 160.835 69.8054 161.007C69.7052 161.179 69.6756 161.383 69.7229 161.577C69.7701 161.77 69.8907 161.938 70.059 162.044C71.1938 162.697 72.1493 163.621 72.8403 164.734C73.5313 165.846 73.9363 167.112 74.0192 168.419C74.084 169.396 75.6135 169.404 75.5487 168.419C75.4657 166.844 74.9909 165.315 74.1673 163.97C73.3437 162.625 72.1975 161.507 70.8325 160.717ZM70.5927 149.433C69.6792 149.048 69.2837 150.529 70.1867 150.907C72.857 152.038 75.179 153.858 76.9156 156.181C78.6521 158.503 79.7409 161.245 80.0707 164.126C80.1827 165.094 81.721 165.103 81.6002 164.126C81.2526 160.915 80.0472 157.856 78.1105 155.271C76.1737 152.686 73.577 150.67 70.5927 149.433Z" fill="#1E1E1E"/>
<path d="M78.2105 92.5759C78.0915 92.8069 78.9665 94.3732 79.0855 94.6392C79.4057 95.5892 79.9309 96.4573 80.6237 97.1819C81.812 98.1304 84.4195 97.9659 85.9297 98.1777C84.5979 99.3452 83.3368 100.591 82.1532 101.909C82.1463 103.722 82.4263 105.525 82.9827 107.251L81.175 106.303C80.475 105.934 79.1572 104.864 78.3925 104.838C78.172 104.844 77.9553 104.897 77.7572 104.994C77.1955 105.242 73.5205 106.754 73.4365 107.251L73.797 105.151C73.9247 104.415 74.588 102.516 74.2205 101.853C74.1435 101.721 73.594 101.217 70.4807 98.1777C70.8762 98.5644 74.9205 97.5319 75.491 97.4497C76.5165 97.3114 77.7415 93.5244 78.2105 92.5759ZM38.867 131.921C38.7462 132.15 39.6212 133.717 39.742 133.984C40.0617 134.935 40.5869 135.803 41.2802 136.527C42.4685 137.476 45.0742 137.309 46.5862 137.521C45.2553 138.69 43.9942 139.935 42.8097 141.252C42.8013 143.066 43.0806 144.869 43.6375 146.595C43.039 146.283 42.4317 145.96 41.8332 145.646C41.1332 145.279 39.8155 144.21 39.0507 144.182C38.8301 144.187 38.6133 144.241 38.4155 144.339C37.852 144.588 34.177 146.089 34.0947 146.595L34.4447 144.495C34.5742 143.758 35.2375 141.87 34.8682 141.198C34.793 141.067 34.2435 140.563 31.1285 137.523C31.524 137.91 35.5682 136.879 36.1405 136.797C37.1712 136.657 38.3962 132.875 38.867 131.921Z" fill="#FBECDD"/>
<path d="M85.9315 97.4129C84.2095 97.2134 82.449 97.4584 81.0945 96.2702C80.0735 95.2446 79.3423 93.967 78.9752 92.5671C78.9245 91.7621 77.6138 91.4437 77.465 92.3922C76.8927 93.7817 76.4517 95.9849 75.19 96.7392C73.8236 97.3209 72.3441 97.5888 70.8605 97.5231C70.1132 97.2099 69.2575 98.0656 69.9295 98.7289C71.1825 99.9539 73.643 101.41 73.44 103.279C73.3105 104.521 72.8957 105.822 72.684 107.055C72.6417 107.233 72.6638 107.419 72.7462 107.582C72.8286 107.745 72.9661 107.873 73.1341 107.944C73.3021 108.014 73.4898 108.023 73.6637 107.969C73.8377 107.914 73.9866 107.799 74.084 107.645C75.0486 106.83 76.1911 106.253 77.4195 105.96C79.2062 105.48 81.0035 107.092 82.5785 107.911C82.7395 107.997 82.9258 108.023 83.1043 107.985C83.2828 107.947 83.4419 107.846 83.5534 107.702C83.6648 107.557 83.7214 107.377 83.713 107.195C83.7047 107.013 83.6319 106.839 83.5077 106.705C83.1296 105.577 82.9341 104.395 82.9285 103.205C82.7797 101.315 85.1842 99.9522 86.4565 98.7097C86.5605 98.6036 86.6312 98.4694 86.66 98.3237C86.6888 98.178 86.6745 98.027 86.6187 97.8893C86.563 97.7516 86.4683 97.6332 86.3462 97.5486C86.2241 97.4639 86.08 97.4168 85.9315 97.4129ZM81.4077 103.216C81.4637 103.888 81.5005 104.726 81.6195 105.538C81.0194 105.01 80.3013 104.633 79.5255 104.439C78.7497 104.245 77.9387 104.239 77.1605 104.423C76.4692 104.681 75.5295 104.994 74.6737 105.409C75.5155 102.196 75.3737 101.319 72.5912 98.9879C73.6224 98.8483 74.6338 98.5887 75.6047 98.2144C76.2376 97.8544 76.7893 97.3674 77.225 96.7841C77.6608 96.2008 77.9713 95.5337 78.137 94.8246C79.5842 97.9746 80.783 98.6379 84.0415 98.8129C82.6135 100.038 81.2432 101.235 81.4077 103.216ZM46.5862 136.767C44.8625 136.58 43.1037 136.812 41.7492 135.624C40.7291 134.598 39.9986 133.321 39.6317 131.921C39.581 131.116 38.2685 130.798 38.1197 131.736C37.5492 133.136 37.1065 135.328 35.8447 136.084C34.4781 136.665 32.9988 136.933 31.5152 136.868C30.7697 136.555 29.9122 137.411 30.586 138.074C31.8372 139.299 34.2977 140.755 34.086 142.624C33.9565 143.867 33.5435 145.165 33.33 146.401C33.2877 146.578 33.3098 146.765 33.3922 146.927C33.4746 147.09 33.6121 147.218 33.7801 147.289C33.9481 147.36 34.1358 147.368 34.3098 147.314C34.4837 147.259 34.6326 147.145 34.73 146.99C35.6936 146.174 36.8356 145.596 38.0637 145.303C39.8505 144.826 41.6477 146.437 43.2227 147.256C43.3838 147.344 43.5707 147.371 43.7498 147.333C43.929 147.295 44.0888 147.194 44.2007 147.049C44.3126 146.904 44.3694 146.724 44.3608 146.541C44.3522 146.358 44.2788 146.184 44.1537 146.051C43.7742 144.923 43.5781 143.741 43.5727 142.551C43.4257 140.662 45.8302 139.299 47.1007 138.057C47.2027 137.951 47.2721 137.819 47.3004 137.675C47.3288 137.531 47.315 137.382 47.2606 137.245C47.2062 137.109 47.1137 136.991 46.994 136.907C46.8744 136.822 46.7328 136.773 46.5862 136.767ZM42.0625 142.561C42.1185 143.233 42.1552 144.071 42.2742 144.882C41.6742 144.354 40.9564 143.977 40.181 143.783C39.4056 143.589 38.595 143.584 37.817 143.767C37.1257 144.026 36.186 144.339 35.3285 144.754C36.172 141.541 36.0285 140.664 33.2477 138.333C34.2785 138.193 35.2893 137.933 36.2595 137.558C36.8927 137.198 37.4447 136.711 37.8808 136.128C38.3168 135.545 38.6276 134.877 38.7935 134.168C40.2407 137.318 41.4395 137.983 44.698 138.158C43.27 139.383 41.898 140.575 42.0625 142.561Z" fill="#1E1E1E"/>
<path d="M49.15 107.399C47.806 108.135 45.2545 108.937 44.5177 110.309C43.8352 111.572 43.144 112.843 42.4527 114.105L40.092 109.775L35.7607 107.407C39.8137 105.181 39.9607 105.234 40.4857 104.331C41.0117 103.083 41.6825 101.902 42.4842 100.812C43.4259 102.125 44.2172 103.541 44.8432 105.031L49.15 107.399ZM24.125 223.389C22.7792 224.125 20.2277 224.927 19.491 226.299C18.8102 227.561 18.119 228.833 17.4277 230.095L15.06 225.765L10.7305 223.397C14.7817 221.17 14.9305 221.224 15.4555 220.321C15.9821 219.074 16.6528 217.893 17.454 216.802C18.3957 218.115 19.187 219.531 19.813 221.021L24.125 223.389ZM168.213 209.081C166.867 209.817 164.316 210.619 163.579 211.993C162.896 213.254 162.205 214.525 161.514 215.788L159.148 211.457L154.818 209.091C158.843 206.876 159.018 206.926 159.535 206.013C160.062 204.767 160.732 203.586 161.533 202.495C162.475 203.809 163.266 205.224 163.892 206.715L168.213 209.081Z" fill="#FBECDD"/>
<path d="M213.825 304.335C217.999 304.13 222.172 303.91 226.344 303.698C227.33 303.652 227.33 302.114 226.344 302.168L213.825 302.805C212.854 302.851 212.845 304.375 213.825 304.335ZM218.501 291.014C220.426 290.757 222.351 290.506 224.276 290.249C225.242 290.119 225.252 288.59 224.276 288.719C222.351 288.977 220.426 289.227 218.501 289.484C217.544 289.603 217.524 291.143 218.501 291.014ZM227.916 280.207H247.749C247.952 280.207 248.146 280.127 248.289 279.984C248.433 279.84 248.513 279.646 248.513 279.443C248.513 279.24 248.433 279.045 248.289 278.902C248.146 278.759 247.952 278.678 247.749 278.678H227.916C227.713 278.678 227.519 278.759 227.375 278.902C227.232 279.045 227.151 279.24 227.151 279.443C227.151 279.646 227.232 279.84 227.375 279.984C227.519 280.127 227.713 280.207 227.916 280.207ZM244.625 288.553H250.892C251.088 288.544 251.273 288.459 251.409 288.317C251.544 288.175 251.62 287.986 251.62 287.789C251.62 287.593 251.544 287.404 251.409 287.262C251.273 287.119 251.088 287.035 250.892 287.025H244.625C244.429 287.035 244.244 287.119 244.108 287.262C243.972 287.404 243.897 287.593 243.897 287.789C243.897 287.986 243.972 288.175 244.108 288.317C244.244 288.459 244.429 288.544 244.625 288.553ZM55.975 313.748C59.9815 314.718 64.1236 315.002 68.225 314.586C69.2015 314.485 69.2102 312.957 68.225 313.057C64.2635 313.471 60.2605 313.206 56.388 312.275C55.429 312.037 55.0247 313.519 55.975 313.748ZM60.4042 306.825H65.6175C65.8203 306.825 66.0148 306.744 66.1582 306.601C66.3016 306.458 66.3822 306.263 66.3822 306.06C66.3822 305.857 66.3016 305.663 66.1582 305.519C66.0148 305.376 65.8203 305.296 65.6175 305.296H60.4042C60.2014 305.296 60.0069 305.376 59.8634 305.519C59.72 305.663 59.6395 305.857 59.6395 306.06C59.6395 306.263 59.72 306.458 59.8634 306.601C60.0069 306.744 60.2014 306.825 60.4042 306.825ZM21.2707 296.439C27.1886 296.149 33.1198 296.307 39.014 296.909C39.9905 297.011 39.9905 295.471 39.014 295.38C33.1201 294.772 27.1885 294.614 21.2707 294.909C20.2855 294.946 20.2855 296.486 21.2707 296.439ZM31.405 287.575C33.3727 287.062 35.4101 286.87 37.439 287.005C38.4242 287.068 38.4242 285.529 37.439 285.475C35.2697 285.337 33.0923 285.548 30.9902 286.101C30.8046 286.165 30.6503 286.297 30.559 286.47C30.4678 286.644 30.4465 286.846 30.4997 287.035C30.5528 287.223 30.6763 287.385 30.8447 287.485C31.0131 287.586 31.2136 287.618 31.405 287.575ZM34.8315 281.774H39C39.2028 281.774 39.3973 281.693 39.5407 281.55C39.6841 281.406 39.7647 281.212 39.7647 281.009C39.7647 280.806 39.6841 280.612 39.5407 280.468C39.3973 280.325 39.2028 280.244 39 280.244H34.8315C34.6286 280.244 34.4341 280.325 34.2907 280.468C34.1473 280.612 34.0667 280.806 34.0667 281.009C34.0667 281.212 34.1473 281.406 34.2907 281.55C34.4341 281.693 34.6286 281.774 34.8315 281.774ZM1.43796 286.473H12.4C12.6028 286.473 12.7973 286.392 12.9407 286.248C13.0841 286.105 13.1647 285.911 13.1647 285.708C13.1647 285.505 13.0841 285.31 12.9407 285.167C12.7973 285.024 12.6028 284.943 12.4 284.943H1.43796C1.23514 284.943 1.04062 285.024 0.897205 285.167C0.753786 285.31 0.673218 285.505 0.673218 285.708C0.673218 285.911 0.753786 286.105 0.897205 286.248C1.04062 286.392 1.23514 286.473 1.43796 286.473Z" fill="#1E1E1E"/>
<path d="M159.839 180.496C156.112 175.655 148.352 176.383 142.603 178.763C138.502 180.474 134.927 183.239 132.24 186.778C131.284 184.126 131.193 181.239 131.979 178.532C132.765 175.825 134.388 173.436 136.615 171.707C136.759 171.601 136.868 171.453 136.926 171.284C136.985 171.114 136.991 170.931 136.943 170.758C136.895 170.585 136.795 170.431 136.658 170.316C136.52 170.201 136.351 170.13 136.172 170.113C134.362 169.973 132.601 169.46 130.999 168.607C129.397 167.753 127.989 166.577 126.864 165.153C125.738 163.729 124.92 162.088 124.459 160.332C123.999 158.576 123.906 156.744 124.188 154.951C128.351 156.892 132.823 158.086 137.399 158.479C139.69 158.662 141.994 158.341 144.147 157.537C146.3 156.733 148.251 155.467 149.862 153.828C152.827 150.475 153.74 145.517 153.602 141.063C148.67 140.035 144.195 137.46 140.827 133.713C135.873 137.136 130.522 139.943 124.89 142.073C123.84 142.468 122.2 142.533 122.034 141.418L116.009 126.225C115.501 125.453 114.892 124.624 113.706 124.891C113.308 124.986 112.938 125.176 112.629 125.443C112.319 125.711 112.079 126.049 111.928 126.43C109.806 131.56 108.429 136.966 107.836 142.486C107.126 135.909 104.127 129.792 99.3627 125.203C98.2655 124.153 96.7605 124.27 95.9257 126.853C93.961 132.892 93.182 139.254 93.6315 145.589C93.8794 147.332 93.8546 149.103 93.558 150.839C92.829 152.962 91.728 154.938 90.3065 156.675C85.746 163.474 83.9417 171.811 83.6565 180.001C83.009 198.136 87.9737 208.232 84.1815 214.547C83.7441 215.313 83.1494 215.977 82.4366 216.496C81.7238 217.015 80.9091 217.376 80.0462 217.557C76.6285 218.186 74.1767 215.449 72.474 212.778C68.8321 206.931 66.6357 200.3 66.0667 193.435C65.4976 186.569 66.5722 179.667 69.2015 173.3C62.667 177.958 60.1015 186.439 59.1145 194.405C58.5127 198.495 58.5192 202.651 59.1337 206.739C78.0775 224.099 103.794 236.296 128.213 244.287C129.338 243.946 130.453 243.587 131.577 243.237C141.265 229.144 134.296 207.229 139.462 196.697C143.771 187.918 157.23 186.88 159.388 185.56C159.773 185.274 160.093 184.909 160.327 184.49C160.561 184.071 160.704 183.607 160.747 183.129C160.789 182.651 160.731 182.169 160.574 181.716C160.418 181.262 160.167 180.846 159.839 180.496Z" fill="#F8AAA8"/>
<path d="M124.059 157.853C124.224 160.61 125.26 163.244 127.019 165.375C128.777 167.506 131.167 169.023 133.843 169.709C135.556 165.201 130.829 159.172 124.059 157.853ZM113.641 203.26C113.703 202.344 113.582 201.425 113.285 200.556C112.987 199.688 112.519 198.888 111.908 198.202C110.636 196.929 109.084 195.97 107.376 195.402C105.302 194.978 103.145 195.266 101.255 196.218C99.3642 197.171 97.8499 198.733 96.9565 200.652C96.1549 202.126 95.8424 203.816 96.064 205.479C96.5522 207.248 98.514 208.363 99.8772 209.486C102.779 211.863 101.627 213.429 101.037 216.469C100.79 217.961 101.145 219.489 102.025 220.719C102.904 221.949 104.236 222.78 105.727 223.028C109.947 223.996 115.078 222.438 115.925 217.778C116.644 213.854 113.3 212.729 112.027 209.653C110.96 207.127 113.354 205.675 113.641 203.26ZM122.853 150.375C123.202 149.612 123.331 148.767 123.225 147.935C123.119 147.104 122.782 146.318 122.253 145.667C121.728 145.078 120.762 144.948 120.237 144.285C119.789 143.473 119.451 142.606 119.232 141.705C118.87 140.755 118.165 139.976 117.255 139.522C116.345 139.069 115.298 138.973 114.322 139.255C111.66 139.919 111.714 142.157 110.342 143.889C109.486 144.967 107.91 145.235 106.749 145.925C105.039 147.057 103.732 148.702 103.014 150.623C102.296 152.545 102.204 154.644 102.752 156.621C103.471 158.23 104.668 159.579 106.182 160.483C107.695 161.386 109.451 161.801 111.208 161.669C112.027 161.618 112.794 161.252 113.349 160.647C113.904 160.043 114.203 159.247 114.183 158.427C114.111 157.37 114.392 156.32 114.983 155.441C115.574 154.562 116.44 153.904 117.445 153.572C119.314 152.825 121.838 152.326 122.853 150.375ZM124.722 212.656C125.817 212.486 126.939 212.656 127.934 213.143C128.93 213.63 129.753 214.41 130.292 215.379C130.831 216.348 131.06 217.458 130.949 218.561C130.838 219.664 130.392 220.706 129.67 221.548C128.949 222.389 127.987 222.99 126.914 223.268C125.841 223.546 124.708 223.489 123.669 223.105C122.629 222.72 121.732 222.026 121.099 221.116C120.466 220.206 120.126 219.124 120.126 218.016C120.034 216.698 120.464 215.396 121.324 214.392C122.184 213.389 123.405 212.765 124.722 212.656Z" fill="#F16D64"/>
<path d="M153.593 141.063C153.732 136.072 151.99 131.211 148.711 127.445C146.228 129.708 143.593 131.8 140.825 133.705C144.191 137.452 148.663 140.03 153.593 141.063ZM159.902 184.126C158.558 181.823 156.532 179.621 153.611 180.256C152.643 180.468 153.058 181.943 154.017 181.73C156.117 181.27 157.536 183.112 158.485 184.724C155.287 186.087 151.751 186.604 148.525 187.893C138.479 191.892 139.492 197.284 135.131 200.873C131.972 203.481 126.435 206.097 123.36 201.85C122.788 201.057 121.451 201.822 122.034 202.623C126.444 208.713 135.232 204.31 138.697 199.408C139.886 197.734 140.484 195.77 141.83 194.185C146.905 188.156 154.605 188.511 160.41 185.527C161.185 185.13 160.649 184.033 159.902 184.126ZM98.808 178.072C98.7538 177.096 97.2242 177.089 97.2802 178.072C97.3899 180.256 98.0045 182.385 99.0757 184.292C99.5552 185.167 100.882 184.385 100.402 183.518C99.4556 181.851 98.9098 179.987 98.808 178.072ZM102.175 179.714C101.886 178.774 100.406 179.17 100.702 180.118C101.212 181.796 101.969 183.388 102.948 184.843C103.501 185.653 104.828 184.889 104.275 184.068C103.36 182.73 102.653 181.262 102.175 179.714Z" fill="#1E1E1E"/>
<path d="M118.845 149.295C119.553 149.295 120.126 148.722 120.126 148.014C120.126 147.307 119.553 146.733 118.845 146.733C118.138 146.733 117.564 147.307 117.564 148.014C117.564 148.722 118.138 149.295 118.845 149.295Z" fill="#1E1E1E"/>
<path d="M115.326 141.401C113.576 142.071 112.162 143.406 111.393 145.114C110.623 146.822 110.56 148.766 111.217 150.52C111.502 151.46 112.986 151.065 112.691 150.114C112.162 148.75 112.183 147.233 112.75 145.884C113.318 144.535 114.387 143.459 115.732 142.883C116.644 142.533 116.248 141.053 115.326 141.401Z" fill="#1E1E1E"/>
</svg>
